<svg xmlns="http://www.w3.org/2000/svg" viewBox="0 0 35.9 35.9"><title>Asset 2</title><path d="M10.77,32.9H3a3,3,0,0,1-3-3V10.77a3,3,0,0,1,3-3H16.15a3,3,0,0,1,3,3v.6H18v-.6A1.81,1.81,0,0,0,16.15,9H3a1.8,1.8,0,0,0-1.79,1.8V29.91A1.8,1.8,0,0,0,3,31.71h7.78Z" fill="#ab8a56"/><path d="M13.16,3.59H6A1.8,1.8,0,0,1,6,0h7.18A1.8,1.8,0,0,1,15,1.79,1.81,1.81,0,0,1,13.16,3.59ZM6,1.2A.6.6,0,1,0,6,2.39h7.18a.6.6,0,1,0,0-1.19Z" fill="#ab8a56"/><rect x="6.58" y="2.99" width="1.2" height="5.38" fill="#ab8a56"/><rect x="11.37" y="2.99" width="1.2" height="5.38" fill="#ab8a56"/><rect x="10.77" y="11.37" width="1.2" height="4.79" fill="#ab8a56"/><path d="M2.69,35.9a2.1,2.1,0,1,1,2.1-2.1A2.1,2.1,0,0,1,2.69,35.9Zm0-3a.9.9,0,0,0,0,1.8.9.9,0,1,0,0-1.8Z" fill="#ab8a56"/><rect x="7.18" y="11.37" width="1.2" height="17.35" fill="#ab8a56"/><polygon points="3.59 11.37 3.59 17.95 3.59 18.04 3.59 28.72 4.79 28.72 4.79 18.04 4.79 17.95 4.79 11.37 3.59 11.37" fill="#ab8a56"/><rect x="14.36" y="11.37" width="1.2" height="4.79" fill="#ab8a56"/><path d="M16.45,35.9a2.1,2.1,0,1,1,2.1-2.1A2.1,2.1,0,0,1,16.45,35.9Zm0-3a.9.9,0,1,0,0,1.8.9.9,0,0,0,0-1.8Z" fill="#ab8a56"/><path d="M32.9,32.9H12a3,3,0,0,1-3-3V18a3,3,0,0,1,3-3H32.9a3,3,0,0,1,3,3v12A3,3,0,0,1,32.9,32.9ZM12,16.15a1.81,1.81,0,0,0-1.8,1.8v12a1.81,1.81,0,0,0,1.8,1.8H32.9a1.81,1.81,0,0,0,1.8-1.8V18a1.81,1.81,0,0,0-1.8-1.8Z" fill="#ab8a56"/><path d="M25.72,15.55H24.53V13.76H20.34v1.79h-1.2V13.16a.6.6,0,0,1,.6-.6h5.39a.59.59,0,0,1,.59.6Z" fill="#ab8a56"/><path d="M28.12,15.55h-1.2V13.16a1.79,1.79,0,0,0-1.79-1.79H19.74A1.79,1.79,0,0,0,18,13.16v2.39h-1.2V13.16a3,3,0,0,1,3-3h5.39a3,3,0,0,1,3,3Z" fill="#ab8a56"/><path d="M11.67,35.9a2.1,2.1,0,1,1,2.09-2.1A2.1,2.1,0,0,1,11.67,35.9Zm0-3a.9.9,0,1,0,.89.9A.9.9,0,0,0,11.67,32.9Z" fill="#ab8a56"/><path d="M33.2,35.9a2.1,2.1,0,1,1,2.1-2.1A2.1,2.1,0,0,1,33.2,35.9Zm0-3a.9.9,0,1,0,.9.9A.9.9,0,0,0,33.2,32.9Z" fill="#ab8a56"/><path d="M15,15h-2.4a.58.58,0,0,0-.59.59V32.31h1.19V16.15h1.2V32.31h1.19V15.55A.58.58,0,0,0,15,15Z" fill="#ab8a56"/><path d="M32.31,15h-2.4a.59.59,0,0,0-.6.59V32.31h1.2V16.15h1.2V32.31H32.9V15.55A.58.58,0,0,0,32.31,15Z" fill="#ab8a56"/></svg>