<svg xmlns="http://www.w3.org/2000/svg" viewBox="0 0 137.75 14.86"><title>Asset 1</title><path d="M113.72,1.68l-5.4,7.8a4.62,4.62,0,0,1-3.25,2.13v.24h6a4.39,4.39,0,0,0,3.54-2.18l5.55-8Z" fill="#e20e1c" fill-rule="evenodd"/><path d="M59.12,7.86h3L60.54,5,59.12,7.86Zm5.21,4-1.16-2H58.1l-1.05,2H54.53l5-9.31h2.29l5.71,9.31Zm-59.62-4h3L6.17,5,4.71,7.86Zm5.36,4-1.19-2H3.68l-1.09,2H0L5.18,2.54H7.55l5.87,9.31Zm15.12-5c1.08,0,1.6-.55,1.6-1.17s-.46-1.12-1.6-1.12H22.3V6.82Zm2.17,1.53,3.76,3.5h-2.9a1.84,1.84,0,0,1-1.4-.53L24.26,8.84A.29.29,0,0,0,24,8.76H22.3v3.09H19.59V2.53h5.88c3.05,0,4.34,1.38,4.34,2.89a3.29,3.29,0,0,1-2.45,2.93ZM48.52,6.82c1.07,0,1.59-.55,1.59-1.17s-.46-1.12-1.59-1.12h-2.9V6.82Zm2.17,1.53,3.75,3.5h-2.9a1.85,1.85,0,0,1-1.4-.53L47.58,8.84a.28.28,0,0,0-.22-.08H45.62v3.09H42.91V2.53h5.88c3.06,0,4.34,1.38,4.34,2.89a3.29,3.29,0,0,1-2.44,2.93Zm42.15,3.5V2.53h9.42v2H95.55V6.14h6.61v2H95.55V9.85h6.68v2Zm-60.68,0V2.53h9.09v2H34.88V6.84H41.1v2H34.88v3Zm59-6.31a9.56,9.56,0,0,0-4.44-1.1c-2.19,0-3.82,1.14-3.82,2.71s1.66,2.76,3.8,2.76a8.67,8.67,0,0,0,4.55-1.25V11A10.56,10.56,0,0,1,86.61,12C82.89,12,80,10.12,80,7.15s3-4.79,6.64-4.79a12.15,12.15,0,0,1,4.59.86V5.54ZM77,11.85,70.46,6.32v5.53H68.17V2.53h2L76.56,8V2.53h2.3v9.32ZM17,11.85H14.32V2.53H17v9.32Z" fill="#323374" fill-rule="evenodd"/><path d="M135.43,3.23h0a6.61,6.61,0,0,1-8.78,9.85h0a6.61,6.61,0,0,0,11.12-4.78v0c0-.16,0-.32,0-.48a6.59,6.59,0,0,0-2.3-4.56Z" fill="#264591" fill-rule="evenodd"/><path d="M123.72,10.75c-.21.11-.26.29-.15.56s.25.36.42.29.16-.17.1-.47l0-.11a1.07,1.07,0,0,1,0-.55.38.38,0,0,1,.24-.28c.29-.12.58.07.75.49s.08.79-.27.94l-.09-.23c.25-.1.31-.33.17-.66s-.27-.39-.46-.32-.17.19-.12.5l0,.13,0,.11a1,1,0,0,1,0,.41.36.36,0,0,1-.23.25c-.28.12-.55-.05-.7-.42s-.08-.72.24-.86l.09.22Z" fill="#264591" fill-rule="evenodd"/><polygon points="123.53 8.36 124.53 7.51 124.54 7.83 123.69 8.53 123.96 8.84 124.56 8.82 124.57 9.07 122.86 9.1 122.86 8.86 123.53 8.85 123.62 8.85 123.7 8.84 123.65 8.78 123.59 8.72 122.84 7.91 122.83 7.58 123.53 8.36 123.53 8.36" fill="#264591" fill-rule="evenodd"/><path d="M124.29,5.72l.65.23-.08.23L124.2,6,123,6.3l.09-.28.73-.2.09,0,.13,0-.13-.16L123.49,5l.09-.28.71,1Z" fill="#264591" fill-rule="evenodd"/><polygon points="125.44 2.58 125.08 3.03 126.15 3.91 125.89 4.22 124.82 3.34 124.46 3.78 124.22 3.58 125.19 2.38 125.44 2.58 125.44 2.58" fill="#264591" fill-rule="evenodd"/><polygon points="127.74 0.97 126.88 1.47 127.06 1.79 127.85 1.32 128 1.58 127.21 2.04 127.42 2.4 128.29 1.89 128.46 2.16 127.23 2.88 126.37 1.41 127.58 0.7 127.74 0.97 127.74 0.97" fill="#264591" fill-rule="evenodd"/><path d="M130.06.75a2.3,2.3,0,0,1-.18-.34,2.61,2.61,0,0,1-.08.38l-.06.33.49-.08-.17-.29Zm1,.88-.45,0-.22-.37-.69.11-.09.42-.43.11.45-1.86L130,0l1,1.63Z" fill="#264591" fill-rule="evenodd"/><path d="M133.78,2.18,133.42,2l.14-.51c0-.06,0-.13.06-.24s0-.19.07-.25,0-.14.07-.22l0-.12a3.15,3.15,0,0,1-.24.38,1,1,0,0,1-.1.15l-.48.68-.31-.08-.1-.82s0-.1,0-.18,0-.19,0-.24a.72.72,0,0,1,0-.21l0,.21c0,.22-.07.32-.14.59l-.14.54-.37-.05L132.26,0l.57.11.08.79a3.33,3.33,0,0,1,0,.56c.07-.13.09-.17.16-.28l.14-.2.44-.65.55.19-.44,1.66Z" fill="#264591" fill-rule="evenodd"/><path d="M133.74,7.69a2.31,2.31,0,0,1,1.15-.51c.15,0,.33.05.33.24s-.18.35-.54.48a3.14,3.14,0,0,1-1.31.08,2,2,0,0,1,.37-.29Zm-6.92.6c-.31,0-.45-.15-.45-.38,0,0,0-.78,1.73-.86a3.88,3.88,0,0,1,.74,0,1.6,1.6,0,0,0-.19.16l-.11.1c-.41.37-1.1,1-1.72,1Zm3.7-2.83-1,1-.46.43a5.67,5.67,0,0,0-1.09-.1,2.86,2.86,0,0,0-1.94.59.56.56,0,0,0-.19.43c0,.4.47.61.6.66a2,2,0,0,0,2-.26,11.31,11.31,0,0,0,1.13-1c.26.06.56.14.88.24l.29.08c-.38.38-.77.78-1.14,1.09l0,0a3.28,3.28,0,0,1-1.39.89,1.13,1.13,0,0,1-.73,0h0a1.34,1.34,0,0,0,1.09.36A2.89,2.89,0,0,0,130.11,9l.76-.74.53-.53,1.07.32h0l-.66.65-.57.56A12.32,12.32,0,0,1,130,10.34a3.06,3.06,0,0,1-1.47.63,1.41,1.41,0,0,1-.8-.15s0,0,0,0a1.69,1.69,0,0,0,1.25.52,3.51,3.51,0,0,0,2.25-1.22c.43-.39.86-.84,1.24-1.23l.7-.72a5.14,5.14,0,0,0,1.34.14c.67,0,1.24-.33,1.24-.7s-.22-.41-.35-.5a1.55,1.55,0,0,0-.82-.24,2.52,2.52,0,0,0-1.55.66l-.35.31-.13,0-1-.28.75-.7a2.73,2.73,0,0,1,1.48-.7,1.8,1.8,0,0,1,.88.14l0,0a1.79,1.79,0,0,0-1.25-.47,2.59,2.59,0,0,0-1.55.62,13,13,0,0,0-1,.94l-.5-.15-.12,0L129.75,7l.3-.27c.35-.35.68-.68.94-.9a3,3,0,0,1,1.94-.9,1.86,1.86,0,0,1,1.07.28l0,0a2.06,2.06,0,0,0-1.57-.63,3.12,3.12,0,0,0-1.93.9Z" fill="#264591" fill-rule="evenodd"/><path d="M134.74.89s.09.06.11,0,0-.06,0-.07l-.07,0,0,.07.05,0Zm0,.23,0,0V.93l-.05,0L134.6,1l0,0,.14-.27.12.06s.09.07.06.13a.1.1,0,0,1-.13,0v.16Zm.17-.08a.24.24,0,0,0-.09-.32.25.25,0,0,0-.33.09.24.24,0,0,0,.1.32.23.23,0,0,0,.32-.09Zm-.46-.23a.27.27,0,0,1,.36-.14A.28.28,0,0,1,135,1a.28.28,0,0,1-.37.14.28.28,0,0,1-.14-.37Z" fill="#264591" fill-rule="evenodd"/></svg>