<svg xmlns="http://www.w3.org/2000/svg" viewBox="0 0 343 277.31"><title>Asset 8</title><path d="M13.13,217.28a7.79,7.79,0,0,1,1.58.83,2.17,2.17,0,0,0,1,.42.45.45,0,0,0,.42-.32,3.48,3.48,0,0,0,.25-1h.69q-.15,1.74-.15,6.13h-.69a7.88,7.88,0,0,0-1.4-4.1,4.09,4.09,0,0,0-3.54-1.67,3.62,3.62,0,0,0-2.64,1,3.32,3.32,0,0,0-1,2.51,3.66,3.66,0,0,0,.53,2,5.25,5.25,0,0,0,1.34,1.44c.54.41,1.31.92,2.31,1.54l.88.54a30.11,30.11,0,0,1,3,2.06,7.34,7.34,0,0,1,1.76,2,5.23,5.23,0,0,1,.66,2.67,5.17,5.17,0,0,1-1.8,4.23A7,7,0,0,1,11.73,239a7.79,7.79,0,0,1-2.36-.3,8.72,8.72,0,0,1-1.76-.81,2.17,2.17,0,0,0-1-.42.46.46,0,0,0-.42.31,3.63,3.63,0,0,0-.24,1H5.24q.12-1.65.12-7.22h.69a9.81,9.81,0,0,0,1.5,4.93,4.48,4.48,0,0,0,4,1.9,4,4,0,0,0,2.77-1,3.78,3.78,0,0,0,1.14-3,4,4,0,0,0-1.12-2.86,18.15,18.15,0,0,0-3.57-2.64c-1.18-.73-2.14-1.37-2.87-1.93a7,7,0,0,1-1.79-2,5.43,5.43,0,0,1-.69-2.78A4.75,4.75,0,0,1,7,218.33,6.15,6.15,0,0,1,11,217,6.2,6.2,0,0,1,13.13,217.28Z" fill="#fff"/><path d="M40.78,217.93a4.2,4.2,0,0,0-1.56.31,1.37,1.37,0,0,0-.69.85,6.23,6.23,0,0,0-.18,1.73v9.05a20.76,20.76,0,0,1-.29,3.71,7.81,7.81,0,0,1-1,2.66,5.24,5.24,0,0,1-2.21,2,7.09,7.09,0,0,1-3.29.75,7.12,7.12,0,0,1-5.05-1.63,6.1,6.1,0,0,1-1.77-2.79,17.52,17.52,0,0,1-.46-4.66v-9.44a5.45,5.45,0,0,0-.18-1.66,1.07,1.07,0,0,0-.67-.69,6,6,0,0,0-1.58-.24v-.6c.84.06,2.12.09,3.85.09s2.89,0,3.82-.09v.6a6,6,0,0,0-1.58.24,1.09,1.09,0,0,0-.68.69,5.45,5.45,0,0,0-.18,1.66v9.95a20.22,20.22,0,0,0,.33,4A4.67,4.67,0,0,0,28.83,237a4.3,4.3,0,0,0,3.05,1q3.19,0,4.48-2.05a10.75,10.75,0,0,0,1.3-5.74v-9.38a3.21,3.21,0,0,0-.59-2.23,3.17,3.17,0,0,0-2.15-.66v-.6c.72.06,1.74.09,3.07.09s2.13,0,2.79-.09Z" fill="#fff"/><path d="M49.59,230v5.41a4.15,4.15,0,0,0,.24,1.65,1.26,1.26,0,0,0,.85.7,8.87,8.87,0,0,0,2,.24v.6c-1-.06-2.52-.09-4.42-.09-1.72,0-3,0-3.85.09V238a6,6,0,0,0,1.58-.24,1.08,1.08,0,0,0,.68-.7,5.42,5.42,0,0,0,.18-1.65V220.52a5.45,5.45,0,0,0-.18-1.66,1.09,1.09,0,0,0-.68-.69,6,6,0,0,0-1.58-.24v-.6c.84.06,2.07.09,3.67.09l3.25,0q.57,0,1.29,0A8,8,0,0,1,58,219a5.39,5.39,0,0,1,1.87,4.31,7.19,7.19,0,0,1-.74,3.17,5.92,5.92,0,0,1-2.5,2.54,9.16,9.16,0,0,1-4.67,1Zm.83-11.88a1.19,1.19,0,0,0-.65.75,5.49,5.49,0,0,0-.18,1.63v8.9h2c2,0,3.32-.53,4.07-1.58a7.16,7.16,0,0,0,1.13-4.23,6.63,6.63,0,0,0-1.16-4.3,4.74,4.74,0,0,0-3.83-1.38A3.58,3.58,0,0,0,50.42,218.14Z" fill="#fff"/><path d="M68.69,230v5.41a4.15,4.15,0,0,0,.24,1.65,1.27,1.27,0,0,0,.84.7,8.89,8.89,0,0,0,2,.24v.6c-1-.06-2.52-.09-4.43-.09q-2.58,0-3.84.09V238a5.93,5.93,0,0,0,1.57-.24,1.06,1.06,0,0,0,.68-.7,5.42,5.42,0,0,0,.18-1.65V220.52a5.45,5.45,0,0,0-.18-1.66,1.06,1.06,0,0,0-.68-.69,5.93,5.93,0,0,0-1.57-.24v-.6q1.26.09,3.66.09l3.25,0c.38,0,.81,0,1.3,0A8,8,0,0,1,77.05,219a5.41,5.41,0,0,1,1.86,4.31,7.18,7.18,0,0,1-.73,3.17,6,6,0,0,1-2.5,2.54A9.17,9.17,0,0,1,71,230Zm.83-11.88a1.17,1.17,0,0,0-.65.75,5.49,5.49,0,0,0-.18,1.63v8.9h2c2,0,3.33-.53,4.08-1.58a7.16,7.16,0,0,0,1.13-4.23,6.63,6.63,0,0,0-1.16-4.3,4.75,4.75,0,0,0-3.84-1.38A3.52,3.52,0,0,0,69.52,218.14Z" fill="#fff"/><path d="M97.45,218.2a8.65,8.65,0,0,1,3.34,3.74,13.36,13.36,0,0,1,1.19,5.85,13.54,13.54,0,0,1-1.22,5.87,9.53,9.53,0,0,1-3.4,4,8.9,8.9,0,0,1-5,1.41,9.52,9.52,0,0,1-5-1.29A8.61,8.61,0,0,1,84.07,234a13.3,13.3,0,0,1-1.19-5.85,13.49,13.49,0,0,1,1.22-5.86,9.4,9.4,0,0,1,3.4-4,8.89,8.89,0,0,1,4.94-1.41A9.53,9.53,0,0,1,97.45,218.2Zm-8.51.59a8.65,8.65,0,0,0-2.25,3.74,17.21,17.21,0,0,0-.8,5.5,15.53,15.53,0,0,0,.89,5.51,8.65,8.65,0,0,0,2.39,3.66,5,5,0,0,0,3.36,1.3,4.88,4.88,0,0,0,3.39-1.34,8.65,8.65,0,0,0,2.25-3.74,17.56,17.56,0,0,0,.8-5.51,15.7,15.7,0,0,0-.89-5.5,8.78,8.78,0,0,0-2.39-3.67,5,5,0,0,0-3.37-1.29A4.81,4.81,0,0,0,88.94,218.79Z" fill="#fff"/><path d="M124.68,237.11a5.13,5.13,0,0,1-1.38,1.48,3.36,3.36,0,0,1-1.84.45,2.91,2.91,0,0,1-2-.72,4.74,4.74,0,0,1-1.19-2.53l-.66-3a20.27,20.27,0,0,0-.67-2.4,3.19,3.19,0,0,0-1-1.36,2.74,2.74,0,0,0-1.77-.51h-2.86v6.92a5.42,5.42,0,0,0,.18,1.65,1.06,1.06,0,0,0,.68.7,5.93,5.93,0,0,0,1.57.24v.6c-.92-.06-2.19-.09-3.82-.09s-3,0-3.84.09V238a5.93,5.93,0,0,0,1.57-.24,1.06,1.06,0,0,0,.68-.7,5.42,5.42,0,0,0,.18-1.65V220.52a5.45,5.45,0,0,0-.18-1.66,1.06,1.06,0,0,0-.68-.69,5.93,5.93,0,0,0-1.57-.24v-.6q1.26.09,3.66.09l3.25,0c.38,0,.81,0,1.3,0a8.53,8.53,0,0,1,5.36,1.46,4.54,4.54,0,0,1,1.88,3.77A5.53,5.53,0,0,1,121,225a5.83,5.83,0,0,1-1.87,2.14,7.82,7.82,0,0,1-3.41,1.27l.36.06a4.35,4.35,0,0,1,4.21,4l.75,3.07a7,7,0,0,0,.63,1.93,1,1,0,0,0,.9.54,1.34,1.34,0,0,0,.86-.27,4.51,4.51,0,0,0,.8-.88Zm-12.52-19a1.17,1.17,0,0,0-.65.75,5.49,5.49,0,0,0-.18,1.63v7.39h2c2,0,3.35-.44,4.09-1.32a5.55,5.55,0,0,0,1.12-3.67,5.32,5.32,0,0,0-1.18-3.73,5,5,0,0,0-3.82-1.26A3.52,3.52,0,0,0,112.16,218.14Z" fill="#fff"/><path d="M143.2,221.18q0,1.5.09,2.46h-.69a18.48,18.48,0,0,0-.6-3.44,2.81,2.81,0,0,0-1.26-1.65A5.56,5.56,0,0,0,138,218h-1.62v17.11a5.08,5.08,0,0,0,.24,1.83,1.34,1.34,0,0,0,.84.79,7.48,7.48,0,0,0,1.95.27v.6c-1-.06-2.51-.09-4.42-.09s-3.48,0-4.45.09V238a7.5,7.5,0,0,0,2-.27,1.34,1.34,0,0,0,.84-.79,5.08,5.08,0,0,0,.24-1.83V218h-1.62a5.54,5.54,0,0,0-2.77.53,2.81,2.81,0,0,0-1.26,1.65,18.48,18.48,0,0,0-.6,3.44h-.7q.09-1,.09-2.46c0-1.15-.07-2.43-.21-3.85,1.67.06,4.49.09,8.48.09s6.79,0,8.45-.09C143.27,218.75,143.2,220,143.2,221.18Z" fill="#fff"/><path d="M170.93,221.18q0,1.5.09,2.46h-.69a18.48,18.48,0,0,0-.6-3.44,2.83,2.83,0,0,0-1.27-1.65,5.52,5.52,0,0,0-2.76-.53h-1.63v17.11a5.08,5.08,0,0,0,.24,1.83,1.34,1.34,0,0,0,.85.79,7.48,7.48,0,0,0,2,.27v.6c-1-.06-2.52-.09-4.42-.09s-3.49,0-4.45.09V238a7.48,7.48,0,0,0,1.95-.27A1.36,1.36,0,0,0,161,237a5.08,5.08,0,0,0,.24-1.83V218h-1.63a5.52,5.52,0,0,0-2.76.53,2.79,2.79,0,0,0-1.27,1.65,18.48,18.48,0,0,0-.6,3.44h-.69q.09-1,.09-2.46c0-1.15-.07-2.43-.21-3.85q2.49.09,8.48.09t8.45-.09C171,218.75,170.93,220,170.93,221.18Z" fill="#fff"/><path d="M193.44,218.17a1.09,1.09,0,0,0-.68.69,5.45,5.45,0,0,0-.18,1.66v14.91a5.42,5.42,0,0,0,.18,1.65,1.08,1.08,0,0,0,.68.7A6,6,0,0,0,195,238v.6c-.85-.06-2.13-.09-3.85-.09s-2.9,0-3.82.09V238a6,6,0,0,0,1.58-.24,1.07,1.07,0,0,0,.67-.7,5.42,5.42,0,0,0,.18-1.65v-7.22H180v7.22a5.42,5.42,0,0,0,.18,1.65,1.08,1.08,0,0,0,.68.7,6,6,0,0,0,1.58.24v.6c-.93-.06-2.2-.09-3.82-.09s-3,0-3.85.09V238a6,6,0,0,0,1.58-.24,1.07,1.07,0,0,0,.67-.7,5.42,5.42,0,0,0,.18-1.65V220.52a5.45,5.45,0,0,0-.18-1.66,1.07,1.07,0,0,0-.67-.69,6,6,0,0,0-1.58-.24v-.6c.84.06,2.12.09,3.85.09s2.87,0,3.82-.09v.6a6,6,0,0,0-1.58.24,1.09,1.09,0,0,0-.68.69,5.45,5.45,0,0,0-.18,1.66v7.09h9.77v-7.09a5.45,5.45,0,0,0-.18-1.66,1.07,1.07,0,0,0-.67-.69,6,6,0,0,0-1.58-.24v-.6c.92.06,2.19.09,3.82.09s3,0,3.85-.09v.6A6,6,0,0,0,193.44,218.17Z" fill="#fff"/><path d="M214.65,238.62c-1.36-.06-3.66-.09-6.88-.09q-5.78,0-8.72.09V238a5.93,5.93,0,0,0,1.57-.24,1.08,1.08,0,0,0,.68-.7,5.42,5.42,0,0,0,.18-1.65V220.52a5.45,5.45,0,0,0-.18-1.66,1.09,1.09,0,0,0-.68-.69,5.93,5.93,0,0,0-1.57-.24v-.6q2.94.09,8.72.09c2.94,0,5,0,6.28-.09a34,34,0,0,0-.21,3.55,15.1,15.1,0,0,0,.09,1.86h-.69a14.06,14.06,0,0,0-.54-2.9,2.4,2.4,0,0,0-1.12-1.38,4.89,4.89,0,0,0-2.37-.44h-2.5a5.55,5.55,0,0,0-1.58.16,1,1,0,0,0-.67.68,5.45,5.45,0,0,0-.18,1.66v7.09h2a2.44,2.44,0,0,0,1.63-.49,2.48,2.48,0,0,0,.76-1.18,10.58,10.58,0,0,0,.32-1.7l.09-.6h.69c-.06.84-.09,1.79-.09,2.83v1.44c0,1,.06,2.45.18,4.27h-.69c0-.14-.08-.62-.18-1.46a3,3,0,0,0-.83-1.88,2.65,2.65,0,0,0-1.88-.63h-2v7.22a5.42,5.42,0,0,0,.18,1.65,1,1,0,0,0,.67.68,5.47,5.47,0,0,0,1.58.17h2.2a6.45,6.45,0,0,0,2.84-.5,3,3,0,0,0,1.43-1.59,12.17,12.17,0,0,0,.66-3.24h.69a20.7,20.7,0,0,0-.09,2.17C214.44,235.91,214.51,237.19,214.65,238.62Z" fill="#fff"/><path d="M242.75,218.2a8.58,8.58,0,0,1,3.34,3.74,13.36,13.36,0,0,1,1.19,5.85,13.54,13.54,0,0,1-1.22,5.87,9.46,9.46,0,0,1-3.4,4,8.89,8.89,0,0,1-4.94,1.41,9.53,9.53,0,0,1-5-1.29,8.67,8.67,0,0,1-3.34-3.75,13.3,13.3,0,0,1-1.19-5.85,13.49,13.49,0,0,1,1.22-5.86,9.47,9.47,0,0,1,3.4-4,8.9,8.9,0,0,1,4.95-1.41A9.52,9.52,0,0,1,242.75,218.2Zm-8.51.59a8.65,8.65,0,0,0-2.25,3.74,17.5,17.5,0,0,0-.8,5.5,15.76,15.76,0,0,0,.89,5.51,8.75,8.75,0,0,0,2.39,3.66,5,5,0,0,0,3.37,1.3,4.86,4.86,0,0,0,3.38-1.34,8.65,8.65,0,0,0,2.25-3.74,17.56,17.56,0,0,0,.8-5.51,15.48,15.48,0,0,0-.89-5.5,8.69,8.69,0,0,0-2.39-3.67,5,5,0,0,0-3.36-1.29A4.82,4.82,0,0,0,234.24,218.79Z" fill="#fff"/><path d="M270,237.11a5.13,5.13,0,0,1-1.38,1.48,3.32,3.32,0,0,1-1.84.45,2.93,2.93,0,0,1-2-.72,4.74,4.74,0,0,1-1.18-2.53l-.66-3a22,22,0,0,0-.68-2.4,3.19,3.19,0,0,0-.95-1.36,2.74,2.74,0,0,0-1.77-.51h-2.86v6.92a5.42,5.42,0,0,0,.18,1.65,1.08,1.08,0,0,0,.68.7,6,6,0,0,0,1.58.24v.6c-.93-.06-2.2-.09-3.82-.09s-3,0-3.85.09V238a6,6,0,0,0,1.58-.24,1.07,1.07,0,0,0,.67-.7,5.42,5.42,0,0,0,.18-1.65V220.52a5.45,5.45,0,0,0-.18-1.66,1.07,1.07,0,0,0-.67-.69,6,6,0,0,0-1.58-.24v-.6c.84.06,2.06.09,3.67.09l3.24,0c.39,0,.82,0,1.3,0a8.58,8.58,0,0,1,5.37,1.46,4.56,4.56,0,0,1,1.87,3.77,5.53,5.53,0,0,1-.55,2.36,5.65,5.65,0,0,1-1.87,2.14,7.82,7.82,0,0,1-3.41,1.27l.36.06a4.35,4.35,0,0,1,4.21,4l.75,3.07a6.63,6.63,0,0,0,.64,1.93,1,1,0,0,0,.9.54,1.33,1.33,0,0,0,.85-.27,4.51,4.51,0,0,0,.8-.88Zm-12.52-19a1.19,1.19,0,0,0-.65.75,5.49,5.49,0,0,0-.18,1.63v7.39h2q3,0,4.08-1.32a5.49,5.49,0,0,0,1.12-3.67,5.27,5.27,0,0,0-1.18-3.73,5,5,0,0,0-3.81-1.26A3.54,3.54,0,0,0,257.46,218.14Z" fill="#fff"/><path d="M280.06,217.93a6,6,0,0,0-1.58.24,1.09,1.09,0,0,0-.68.69,5.45,5.45,0,0,0-.18,1.66v14.91a5.42,5.42,0,0,0,.18,1.65,1.08,1.08,0,0,0,.68.7,6,6,0,0,0,1.58.24v.6c-.93-.06-2.2-.09-3.82-.09s-3,0-3.85.09V238a6,6,0,0,0,1.58-.24,1.07,1.07,0,0,0,.67-.7,5.42,5.42,0,0,0,.18-1.65V220.52a5.45,5.45,0,0,0-.18-1.66,1.07,1.07,0,0,0-.67-.69,6,6,0,0,0-1.58-.24v-.6c.84.06,2.12.09,3.85.09s2.87,0,3.82-.09Z" fill="#fff"/><path d="M296.8,217.4a13.79,13.79,0,0,1,2.5,1.46,1.17,1.17,0,0,0,.6.3q.57,0,.75-1.83h.7c-.08,1.3-.12,3.61-.12,6.91h-.7a24.43,24.43,0,0,0-.57-2.63,5.15,5.15,0,0,0-.93-1.82,6.06,6.06,0,0,0-2.27-1.71,7.05,7.05,0,0,0-2.93-.63,5.18,5.18,0,0,0-3.49,1.29,8.22,8.22,0,0,0-2.32,3.68,17.45,17.45,0,0,0-.81,5.58q0,5.42,1.73,7.93a6.13,6.13,0,0,0,5.43,2.51,5.33,5.33,0,0,0,3.13-.93,2,2,0,0,0,.7-.71,2.24,2.24,0,0,0,.17-1V233a5.08,5.08,0,0,0-.24-1.83,1.35,1.35,0,0,0-.84-.78,7.65,7.65,0,0,0-2-.27v-.6c1,.06,2.46.09,4.24.09,1.36,0,2.41,0,3.13-.09v.6a2.61,2.61,0,0,0-1,.24,1,1,0,0,0-.42.69,9.24,9.24,0,0,0-.1,1.65v6h-.61a3.81,3.81,0,0,0-.24-1.16c-.14-.37-.33-.56-.57-.56a.8.8,0,0,0-.36.09,5.43,5.43,0,0,0-.63.42,7.78,7.78,0,0,1-2.18,1.22,7.38,7.38,0,0,1-2.51.41,10.44,10.44,0,0,1-5.31-1.28,8.38,8.38,0,0,1-3.38-3.68,13,13,0,0,1-1.17-5.75,13.85,13.85,0,0,1,1.24-6,9.39,9.39,0,0,1,3.45-4,9,9,0,0,1,5-1.4A7.36,7.36,0,0,1,296.8,217.4Z" fill="#fff"/><path d="M314.16,217.93a6,6,0,0,0-1.58.24,1.09,1.09,0,0,0-.68.69,5.45,5.45,0,0,0-.18,1.66v14.91a5.42,5.42,0,0,0,.18,1.65,1.08,1.08,0,0,0,.68.7,6,6,0,0,0,1.58.24v.6c-.93-.06-2.2-.09-3.82-.09s-3,0-3.85.09V238a6.1,6.1,0,0,0,1.58-.24,1.07,1.07,0,0,0,.67-.7,5.42,5.42,0,0,0,.18-1.65V220.52a5.45,5.45,0,0,0-.18-1.66,1.07,1.07,0,0,0-.67-.69,6.1,6.1,0,0,0-1.58-.24v-.6c.84.06,2.12.09,3.85.09s2.87,0,3.82-.09Z" fill="#fff"/><path d="M337.07,217.93a4.2,4.2,0,0,0-1.56.31,1.36,1.36,0,0,0-.7.85,6.23,6.23,0,0,0-.18,1.73v18h-.69l-12.63-19.52v15.88a5.73,5.73,0,0,0,.2,1.74,1.36,1.36,0,0,0,.76.83,5.29,5.29,0,0,0,1.78.32v.6c-.72-.06-1.75-.09-3.07-.09s-2.13,0-2.8.09V238a4.19,4.19,0,0,0,1.57-.32,1.33,1.33,0,0,0,.69-.84,6.28,6.28,0,0,0,.18-1.73V220.52a5.45,5.45,0,0,0-.18-1.66,1.09,1.09,0,0,0-.68-.69,6,6,0,0,0-1.58-.24v-.6c.67.06,1.6.09,2.8.09.9,0,1.69,0,2.35-.09l10.61,16.36V220.82a5.82,5.82,0,0,0-.19-1.75,1.4,1.4,0,0,0-.77-.83,5.26,5.26,0,0,0-1.77-.31v-.6q1.08.09,3.06.09c1.21,0,2.14,0,2.8-.09Z" fill="#fff"/><path d="M117.72,268.29v5.41a4.2,4.2,0,0,0,.24,1.66,1.28,1.28,0,0,0,.84.69,8.89,8.89,0,0,0,2,.24v.6c-1.05-.06-2.52-.09-4.43-.09q-2.58,0-3.84.09v-.6a5.93,5.93,0,0,0,1.57-.24,1.06,1.06,0,0,0,.68-.69,5.49,5.49,0,0,0,.18-1.66V258.79a5.54,5.54,0,0,0-.18-1.66,1.06,1.06,0,0,0-.68-.69,5.93,5.93,0,0,0-1.57-.24v-.6q1.26.09,3.66.09l3.25,0c.38,0,.81,0,1.3,0a8,8,0,0,1,5.38,1.61,5.41,5.41,0,0,1,1.86,4.31,7.22,7.22,0,0,1-.73,3.18,6.09,6.09,0,0,1-2.5,2.54,9.28,9.28,0,0,1-4.68,1Zm.83-11.88a1.17,1.17,0,0,0-.65.75,5.54,5.54,0,0,0-.18,1.63v8.9h2c2,0,3.33-.53,4.08-1.58a7.14,7.14,0,0,0,1.13-4.23,6.65,6.65,0,0,0-1.16-4.3,4.75,4.75,0,0,0-3.84-1.38A3.52,3.52,0,0,0,118.55,256.41Z" fill="#fff"/><path d="M147.19,276.89c-1.37-.06-3.66-.09-6.89-.09-3.85,0-6.75,0-8.72.09v-.6a6,6,0,0,0,1.58-.24,1.09,1.09,0,0,0,.68-.69,5.49,5.49,0,0,0,.18-1.66V258.79a5.54,5.54,0,0,0-.18-1.66,1.09,1.09,0,0,0-.68-.69,6,6,0,0,0-1.58-.24v-.6c2,.06,4.87.09,8.72.09,2.95,0,5,0,6.29-.09a34.11,34.11,0,0,0-.21,3.55,15.1,15.1,0,0,0,.09,1.86h-.7a14.06,14.06,0,0,0-.54-2.9,2.42,2.42,0,0,0-1.11-1.38,5,5,0,0,0-2.38-.44h-2.49a5.43,5.43,0,0,0-1.58.17,1,1,0,0,0-.68.67,5.54,5.54,0,0,0-.18,1.66v7.09h2a2.39,2.39,0,0,0,1.62-.49,2.43,2.43,0,0,0,.77-1.17,11.15,11.15,0,0,0,.31-1.7l.09-.61h.7c-.06.85-.09,1.79-.09,2.83v1.45q0,1.53.18,4.26h-.7c0-.14-.08-.62-.18-1.45a2.94,2.94,0,0,0-.82-1.88,2.65,2.65,0,0,0-1.88-.63h-2v7.21a5.49,5.49,0,0,0,.18,1.66,1,1,0,0,0,.68.67,5.43,5.43,0,0,0,1.58.17h2.19a6.5,6.5,0,0,0,2.85-.5,3,3,0,0,0,1.42-1.59,12,12,0,0,0,.67-3.23h.69A20.49,20.49,0,0,0,147,273C147,274.18,147.05,275.47,147.19,276.89Z" fill="#fff"/><path d="M166.3,256.47a8.68,8.68,0,0,1,3.34,3.75,14.88,14.88,0,0,1,0,11.71,9.45,9.45,0,0,1-3.39,4,9,9,0,0,1-5,1.41,9.58,9.58,0,0,1-5-1.29,8.6,8.6,0,0,1-3.33-3.75,13.14,13.14,0,0,1-1.19-5.84,13.39,13.39,0,0,1,1.22-5.87,9.45,9.45,0,0,1,3.39-4,9,9,0,0,1,4.95-1.41A9.58,9.58,0,0,1,166.3,256.47Zm-8.51.59a8.57,8.57,0,0,0-2.26,3.74,17.57,17.57,0,0,0-.79,5.51,15.71,15.71,0,0,0,.88,5.5,8.85,8.85,0,0,0,2.39,3.67,5.07,5.07,0,0,0,3.37,1.29,4.86,4.86,0,0,0,3.38-1.34,8.57,8.57,0,0,0,2.26-3.74,17.54,17.54,0,0,0,.8-5.5,15.76,15.76,0,0,0-.89-5.51,8.85,8.85,0,0,0-2.39-3.67,5,5,0,0,0-3.37-1.29A4.86,4.86,0,0,0,157.79,257.06Z" fill="#fff"/><path d="M180.18,268.29v5.41a4.2,4.2,0,0,0,.24,1.66,1.28,1.28,0,0,0,.84.69,8.87,8.87,0,0,0,2,.24v.6c-1-.06-2.51-.09-4.42-.09-1.72,0-3,0-3.85.09v-.6a6,6,0,0,0,1.58-.24,1.09,1.09,0,0,0,.68-.69,5.49,5.49,0,0,0,.18-1.66V258.79a5.54,5.54,0,0,0-.18-1.66,1.09,1.09,0,0,0-.68-.69,6,6,0,0,0-1.58-.24v-.6c.85.06,2.07.09,3.67.09l3.25,0q.57,0,1.29,0a8,8,0,0,1,5.39,1.61,5.41,5.41,0,0,1,1.86,4.31,7.23,7.23,0,0,1-.74,3.18,6,6,0,0,1-2.49,2.54,9.31,9.31,0,0,1-4.68,1Zm.82-11.88a1.18,1.18,0,0,0-.64.75,5.54,5.54,0,0,0-.18,1.63v8.9h2c2,0,3.32-.53,4.07-1.58a7.07,7.07,0,0,0,1.13-4.23,6.59,6.59,0,0,0-1.16-4.3,4.74,4.74,0,0,0-3.83-1.38A3.58,3.58,0,0,0,181,256.41Z" fill="#fff"/><path d="M201.71,256.2a6,6,0,0,0-1.58.24,1.09,1.09,0,0,0-.68.69,5.54,5.54,0,0,0-.18,1.66V273.7a5.49,5.49,0,0,0,.18,1.66,1,1,0,0,0,.68.67,5.38,5.38,0,0,0,1.58.17h2.19a6.13,6.13,0,0,0,2.84-.53,3.08,3.08,0,0,0,1.43-1.7,13.45,13.45,0,0,0,.66-3.39h.69q-.09.93-.09,2.46c0,1.14.07,2.43.21,3.85q-2-.09-6.88-.09-5.77,0-8.72.09v-.6a6,6,0,0,0,1.58-.24,1.07,1.07,0,0,0,.67-.69,5.49,5.49,0,0,0,.18-1.66V258.79a5.54,5.54,0,0,0-.18-1.66,1.07,1.07,0,0,0-.67-.69,6,6,0,0,0-1.58-.24v-.6c.84.06,2.12.09,3.85.09s2.87,0,3.82-.09Z" fill="#fff"/><path d="M228.83,276.89q-2-.09-6.89-.09c-3.85,0-6.75,0-8.72.09v-.6a6,6,0,0,0,1.58-.24,1.09,1.09,0,0,0,.68-.69,5.49,5.49,0,0,0,.18-1.66V258.79a5.54,5.54,0,0,0-.18-1.66,1.09,1.09,0,0,0-.68-.69,6,6,0,0,0-1.58-.24v-.6c2,.06,4.87.09,8.72.09,2.95,0,5,0,6.29-.09a34.11,34.11,0,0,0-.21,3.55,15.1,15.1,0,0,0,.09,1.86h-.69a13.3,13.3,0,0,0-.55-2.9,2.42,2.42,0,0,0-1.11-1.38,5,5,0,0,0-2.37-.44h-2.5a5.43,5.43,0,0,0-1.58.17,1,1,0,0,0-.67.67,5.54,5.54,0,0,0-.18,1.66v7.09h2a2.39,2.39,0,0,0,1.62-.49,2.43,2.43,0,0,0,.77-1.17,11,11,0,0,0,.32-1.7l.09-.61h.69c-.06.85-.09,1.79-.09,2.83v1.45q0,1.53.18,4.26h-.69c0-.14-.08-.62-.18-1.45a2.94,2.94,0,0,0-.83-1.88,2.65,2.65,0,0,0-1.88-.63h-2v7.21a5.49,5.49,0,0,0,.18,1.66,1,1,0,0,0,.67.67,5.43,5.43,0,0,0,1.58.17h2.2a6.45,6.45,0,0,0,2.84-.5,3,3,0,0,0,1.43-1.59,12.08,12.08,0,0,0,.66-3.23h.69a20.49,20.49,0,0,0-.09,2.16C228.62,274.18,228.69,275.47,228.83,276.89Z" fill="#fff"/><line x1="184.1" y1="194.46" x2="342.5" y2="194.46" fill="none" stroke="#fff" stroke-linecap="round" stroke-miterlimit="10" opacity="0.8"/><line x1="0.5" y1="194.46" x2="158.9" y2="194.46" fill="none" stroke="#fff" stroke-linecap="round" stroke-miterlimit="10" opacity="0.8"/><path d="M138.13,97.69h.13s0,0,0,0l-.14,0A.17.17,0,0,0,138.13,97.69Z" fill="#fff"/><path d="M205.29,97.69h-.14a.43.43,0,0,1,0,0l.14,0S205.29,97.67,205.29,97.69Z" fill="#fff"/><path d="M113.87,67.64,92.58,54.25l21.51,13-2-5-1.86-4.51-1-.41.43,2.52-1.61-3c-1.51-.54-3-1-4.5-1.49l-.09,0-.14,0c-1.1-.33-2.17-.63-3.19-.9l-.11,0c-1-.27-2-.5-2.93-.7l-.16,0c-1.2-.25-2.26-.44-3.15-.56l-.11,0-.64-.07-.21,0-.45,0H91.5a1.44,1.44,0,0,0-.24,0,.5.5,0,0,0-.13,0,.35.35,0,0,0-.19.13.66.66,0,0,0,0,.49.64.64,0,0,1,0,.07,6,6,0,0,0,.4.82c0,.06.07.11.1.18.19.32.43.68.7,1.08l.19.27c.29.41.61.84,1,1.31l.25.31.43.53.35,0-.35,0,.45.57c.37.45.77.92,1.18,1.4l.64.73c.63.72,1.31,1.46,2,2.21l.12.13.06.07c.65.68,1.32,1.37,2,2.06l3.53.06-2.65.8c.7.68,1.42,1.34,2.15,2l.09.08,4.86-.37Z" fill="#fff"/><path d="M123.62,53.57,106.17,35l17.75,18.28-.74-5.41L122.52,43c-.3-.22-.6-.44-.91-.65l-.23,2.57-.82-3.31c-1.34-.92-2.7-1.8-4-2.61l-.15-.09c-2.06-1.26-4-2.35-5.75-3.22l-.15-.08a22.32,22.32,0,0,0-5-2h0a1.42,1.42,0,0,0-.34,0h0a.37.37,0,0,0-.23.09.34.34,0,0,0-.08.21s0,.07,0,.11a2.54,2.54,0,0,0,0,.26,1.11,1.11,0,0,0,0,.17c0,.1,0,.21.06.34l.06.22c0,.13.07.27.11.43s0,.17.08.25.11.35.17.53l.09.26c.08.22.17.44.26.68,0,.07,0,.13.07.2.26.64.55,1.34.89,2.09l.36.06-.36-.06.06.14c.8,1.76,1.81,3.79,3,5.9l.09.15c.45.82.93,1.66,1.42,2.5l3.45,1-2.81.1c.5.82,1,1.63,1.55,2.43l.12.18,4.86.89Z" fill="#fff"/><path d="M137.07,41.17,123.94,18l13.51,23,.59-5.68.54-5.14-.75-.89L137,31.79V28.22c-1.13-1.26-2.29-2.48-3.43-3.62l0-.05-.1-.11Q132,23.12,130.78,22l-.08-.07c-.83-.77-1.63-1.49-2.39-2.14l-.13-.1c-1-.86-1.91-1.59-2.69-2.15l0,0c-.21-.16-.4-.29-.59-.41l-.16-.11-.41-.25-.22-.14-.28-.13-.23-.12-.2-.06a.7.7,0,0,0-.18,0,.39.39,0,0,0-.25,0,.45.45,0,0,0-.14.2.35.35,0,0,0,0,.11,1,1,0,0,0-.06.26c0,.06,0,.12,0,.18s0,.23,0,.37v.23c0,.14,0,.3,0,.47a2.46,2.46,0,0,0,0,.26c0,.19,0,.39,0,.6l0,.27c0,.24,0,.49.09.74l0,.26c0,.29.09.6.14.92l0,.19c.06.39.13.79.21,1.21l.35.16-.35-.16v0c0,.07,0,.14,0,.21.17.92.38,1.91.61,2.94l.1.4c.23,1,.5,2.09.79,3.18,0,.1,0,.2.08.29v0c.25.95.53,1.92.83,2.89L129,34.26l-2.87-.59c.32,1,.67,2,1,3l0,0,4.72,2.11Z" fill="#fff"/><path d="M153.39,34.18,146.71,8.39l7.11,25.67,2-5.33,1.85-4.83c-.16-.35-.33-.71-.5-1.06l-1.5,2.24.9-3.44c-.76-1.52-1.57-3-2.38-4.42l-.09-.16c-.63-1.08-1.25-2.12-1.86-3.09l0-.05c-.61-1-1.2-1.88-1.77-2.7l-.1-.14c-1.75-2.55-3.22-4.28-3.92-4.61l0,0a.4.4,0,0,0-.25,0,.42.42,0,0,0-.19.15s0,.07-.05.1a1.08,1.08,0,0,0-.13.24l-.06.16c0,.11-.08.22-.12.36l-.06.21c0,.15-.07.3-.11.47a2,2,0,0,0-.05.26c0,.18-.07.37-.11.58s0,.19-.05.29-.06.44-.1.68,0,.22,0,.34-.06.5-.09.76,0,.24,0,.37c0,.29,0,.59-.08.9a2.45,2.45,0,0,0,0,.27l.3.25-.3-.25v0a.49.49,0,0,1,0,.12c-.15,2-.24,4.38-.24,6.89v.18c0,1,0,2,0,3l2.68,2.6-2.62-1.31c0,1,.12,2.06.2,3.08a.76.76,0,0,1,0,.15l4,3.26Z" fill="#fff"/><path d="M171.32,29.94l.23-27.81.23,27.8,3.5-4.82,3.17-4.37c-.08-.4-.14-.8-.22-1.21l-2.12,1.86L178,18.16c-.36-1.73-.78-3.45-1.21-5.1,0-.06,0-.12-.05-.18-.16-.62-.33-1.23-.5-1.82l-.05-.17c-.15-.52-.3-1-.46-1.54l-.09-.28c-.14-.48-.29-.94-.43-1.38a2.25,2.25,0,0,1-.08-.24q-.22-.69-.45-1.32L174.57,6a1.17,1.17,0,0,0,0-.11,37.13,37.13,0,0,0-1.73-4.22v0c-.11-.22-.21-.41-.31-.58l-.06-.11c-.09-.15-.17-.27-.25-.38l-.08-.12a1.51,1.51,0,0,0-.22-.22.29.29,0,0,0-.07-.08.42.42,0,0,0-.24-.11.42.42,0,0,0-.23.1.6.6,0,0,0-.08.08,1.35,1.35,0,0,0-.2.21l-.1.15-.22.33-.1.18c-.09.14-.17.3-.26.47s-.07.13-.1.2-.19.4-.3.63l-.09.19c-.11.25-.22.52-.34.81a1,1,0,0,1-.07.15c-.13.32-.26.66-.4,1l0,.08c-.15.39-.3.8-.45,1.24l.23.33-.23-.33-.06.16c-.16.45-.32.93-.49,1.42-.05.16-.1.33-.16.5L167.53,9q-.08.24-.15.51c-.13.42-.26.86-.39,1.3l-.09.32c-.17.57-.33,1.16-.49,1.76h0l-.14.53c-.22.88-.45,1.78-.66,2.69l2,3.36-2.29-2c-.23,1-.43,2.11-.63,3.16,0,.05,0,.11,0,.16l3.16,4.37Z" fill="#fff"/><path d="M238.34,86.52l-4.77-1.44,21.9-7.83-22,7.47,2.85-4.09,2.58-3.71,1-.16L239,79l2-2.35c1.48-.18,3-.33,4.37-.44h.18c2.17-.16,4.21-.23,6-.23h.18a31,31,0,0,1,3.8.21h0l.6.1h0a3.13,3.13,0,0,1,.44.11h.05a1.49,1.49,0,0,1,.28.13l0,0a.32.32,0,0,1,.15.16.63.63,0,0,1-.13.43l0,.06a4.91,4.91,0,0,1-.53.66l-.12.14c-.24.25-.53.54-.86.84l-.21.2c-.35.31-.73.65-1.15,1l-.25.21-.53.41-.31-.09.31.09-.46.38-1.44,1.09-.69.52c-.6.43-1.23.88-1.88,1.32-.91.63-1.84,1.25-2.81,1.87l-3.2-.66,2.23,1.26c-.8.49-1.61,1-2.44,1.42Z" fill="#fff"/><path d="M229.55,67.64l21.29-13.39-21.51,13,2-5,1.86-4.51,1-.41-.42,2.52,1.61-3c1.51-.54,3-1,4.5-1.49l.08,0,.15,0c1.09-.33,2.16-.63,3.18-.9l.11,0c1-.27,2-.5,2.94-.7l.16,0c1.19-.25,2.26-.44,3.15-.56l.11,0,.63-.07.22,0,.44,0h.79l.23,0a.7.7,0,0,1,.14,0,.35.35,0,0,1,.19.13c.06.09,0,.27,0,.49a.25.25,0,0,1,0,.07,7.1,7.1,0,0,1-.39.82l-.11.18c-.19.32-.42.68-.7,1.08l-.19.27c-.29.41-.6.84-1,1.31l-.25.31-.43.53-.36,0,.36,0-.45.57c-.37.45-.77.92-1.19,1.4l-.63.73c-.64.72-1.31,1.46-2,2.21l-.11.13-.07.07c-.65.68-1.32,1.37-2,2.06l-3.53.06,2.65.8c-.7.68-1.42,1.34-2.15,2l-.09.08L234.92,68Z" fill="#fff"/><path d="M219.8,53.57,237.25,35,219.5,53.28l.73-5.41L220.9,43l.9-.65.24,2.57.82-3.31c1.34-.92,2.7-1.8,4-2.61l.15-.09c2.05-1.26,4-2.35,5.75-3.22l.15-.08a22.14,22.14,0,0,1,5-2h0a1.37,1.37,0,0,1,.34,0h0a.31.31,0,0,1,.31.3v.11a1.12,1.12,0,0,1,0,.26l0,.17a2.73,2.73,0,0,1-.06.34,1.74,1.74,0,0,1,0,.22c0,.13-.07.27-.12.43l-.07.25c-.06.17-.11.35-.18.53l-.09.26-.25.68-.08.2c-.25.64-.54,1.34-.88,2.09l-.37.06.37-.06s0,.1-.07.14c-.79,1.76-1.8,3.79-3,5.9l-.08.15c-.46.82-.93,1.66-1.42,2.5l-3.45,1,2.8.1c-.5.82-1,1.63-1.55,2.43l-.12.18-4.86.89Z" fill="#fff"/><path d="M206.34,41.17,219.47,18,206,40.94l-.59-5.68-.54-5.14.76-.89.87,2.56,0-3.57c1.12-1.26,2.28-2.48,3.42-3.62l0-.05.11-.11c.87-.88,1.74-1.71,2.57-2.49l.08-.07c.83-.77,1.64-1.49,2.39-2.14l.13-.1c1-.86,1.92-1.59,2.7-2.15l0,0c.21-.16.41-.29.6-.41l.15-.11.41-.25.23-.14.28-.13.23-.12.2-.06a.7.7,0,0,1,.18,0,.4.4,0,0,1,.25,0,.54.54,0,0,1,.14.2l0,.11c0,.08,0,.16.06.26s0,.12,0,.18,0,.23,0,.37v.23c0,.14,0,.3,0,.47s0,.17,0,.26,0,.39-.05.6,0,.18,0,.27l-.09.74a2.34,2.34,0,0,1,0,.26c0,.29-.08.6-.13.92l0,.19c-.07.39-.13.79-.21,1.21l-.36.16.36-.16v0l0,.21c-.18.92-.38,1.91-.62,2.94l-.09.4c-.24,1-.5,2.09-.8,3.18,0,.1-.05.2-.07.29v0c-.26.95-.53,1.92-.83,2.89l-3.26,1.83,2.87-.59c-.32,1-.66,2-1,3l0,0-4.72,2.11Z" fill="#fff"/><path d="M190,34.18l6.69-25.79L189.6,34.06l-2-5.33L185.7,23.9c.17-.35.33-.71.5-1.06l1.51,2.24-.91-3.44c.77-1.52,1.58-3,2.39-4.42l.09-.16c.62-1.08,1.25-2.12,1.86-3.09l0-.05c.6-1,1.2-1.88,1.77-2.7l.09-.14c1.76-2.55,3.22-4.28,3.93-4.61l0,0a.29.29,0,0,1,.43.11l.06.1.13.24.06.16c0,.11.08.22.12.36a2.09,2.09,0,0,0,.05.21c0,.15.08.3.11.47l.06.26c0,.18.07.37.1.58a2.5,2.5,0,0,1,0,.29c0,.21.07.44.1.68s0,.22.05.34.06.5.08.76,0,.24,0,.37l.09.9a2.45,2.45,0,0,0,0,.27l-.3.25.3-.25v0a.49.49,0,0,1,0,.12c.16,2,.25,4.38.25,6.89v.18c0,1,0,2-.06,3l-2.67,2.6,2.62-1.31c-.05,1-.12,2.06-.21,3.08a.76.76,0,0,1,0,.15l-4,3.26Z" fill="#fff"/><path d="M105.07,86.52l4.78-1.44L87.94,77.25l22,7.47-2.85-4.09-2.58-3.71-1-.16.88,2.19-2-2.35c-1.47-.18-2.94-.33-4.36-.44h-.19c-2.16-.16-4.2-.23-5.95-.23h-.18a31.35,31.35,0,0,0-3.81.21h0l-.6.1h0a3.71,3.71,0,0,0-.45.11h0a2,2,0,0,0-.29.13l0,0a.38.38,0,0,0-.15.16c0,.09,0,.24.13.43,0,0,0,0,0,.06a4.74,4.74,0,0,0,.52.66l.13.14c.24.25.52.54.85.84l.22.2c.34.31.73.65,1.15,1l.25.21.52.41.32-.09-.32.09.47.38c.45.35.93.72,1.44,1.09l.68.52c.6.43,1.24.88,1.89,1.32.9.63,1.83,1.25,2.81,1.87l3.2-.66L98.31,86.4c.81.49,1.62,1,2.44,1.42Z" fill="#fff"/><path d="M106.2,104.57l3.87-2.36L89,100.36l21.1,1.5-3.45-2.94-3.12-2.67c-.31,0-.62,0-.93.09l1.28,1.73-2.34-1.6c-1.34.17-2.66.38-3.94.61l-.13,0h0c-2,.36-3.76.77-5.29,1.17l-.06,0-.1,0a30,30,0,0,0-3.3,1h0l-.51.23h0a2.43,2.43,0,0,0-.37.21h0l-.23.18,0,0a.3.3,0,0,0-.09.18c0,.09.07.21.21.35l0,0a4.77,4.77,0,0,0,.61.46l.14.09c.27.17.59.35.94.54l.24.13c.38.2.79.4,1.24.61l.27.13.56.24.25-.15-.25.15.49.23,1.52.63c.24.1.47.2.72.29.63.25,1.29.49,2,.74.94.34,1.91.67,2.9,1l2.67-1.31L100.22,106c.82.24,1.65.48,2.48.69Z" fill="#fff"/><path d="M237.48,104.36,233.61,102l21.08-1.85-21.1,1.5L237,98.71,240.16,96l.92.09-1.28,1.73,2.34-1.6c1.34.18,2.67.38,3.94.62l.13,0h0c1.94.36,3.75.77,5.29,1.18h.05l.11,0a28.32,28.32,0,0,1,3.3,1.06h0l.51.23h0c.14.08.26.14.36.21l0,0,.22.17,0,0a.34.34,0,0,1,.1.17.58.58,0,0,1-.22.35l0,0a5.32,5.32,0,0,1-.61.46l-.15.09c-.27.17-.58.35-.94.55l-.24.12c-.37.2-.79.4-1.24.62l-.27.12-.55.25-.26-.16.26.16-.5.22c-.48.21-1,.42-1.52.63l-.72.3-2,.73c-.94.34-1.9.68-2.9,1l-2.67-1.31,1.68,1.62c-.82.25-1.64.48-2.47.69Z" fill="#fff"/><path d="M114.09,67.29l25.66,15.55c.67-1.64-.48-3.57-2.57-5.69l0,.41L137,77a88.09,88.09,0,0,0-7.87-6.48l.39,2.36-1.93-3.55a72,72,0,0,1-6-5.1,31.08,31.08,0,0,0-8.94-5.42l.71,4.07L110.81,58l-.63-.24L112,62.3Z" fill="#fff"/><path d="M108.49,68l-4.86.37c3.33,3,6.82,5.6,9.84,6.9l6.78.23-3.44,1.06c2.9,1.19,6,2.74,9,4.17l2-.54-1.36.87c5.71,2.72,10.77,4.73,12.76,2.49l-25.37-16Z" fill="#fff"/><path d="M118.24,52.59l-4.86-.89c2.5,3.78,5.26,7.24,7.89,9.29l6.58,2-3.64.16c2.54,1.91,5.19,4.23,7.74,6.38h2.15l-1.55.51c4.91,4.13,9.38,7.45,11.9,5.74L123.62,53.57Z" fill="#fff"/><path d="M123.18,47.87l.74,5.41L145.11,75.1c1.07-1.44.44-3.63-1.07-6.24l-.14.39,0-.59a90.2,90.2,0,0,0-6.06-8.37l-.22,2.42-1-4a68,68,0,0,1-4.62-6.55,31.61,31.61,0,0,0-7.39-7.6l-.34,4.17-1.25-5.39c-.48-.35-1-.71-1.46-1,.31.21.61.43.91.65Z" fill="#fff"/><path d="M131.86,38.84l-4.72-2.11c1.6,4.46,3.55,8.66,5.71,11.39l6.21,3.62L135.32,51c2.1,2.57,4.22,5.58,6.27,8.4l2.19.53-1.7.14c4,5.41,7.68,9.89,10.67,8.77L137.07,41.17Z" fill="#fff"/><path d="M138,35.26l-.59,5.68,16.13,27.41c1.44-1.2,1.34-3.58.46-6.6l-.25.36.18-.59a91.65,91.65,0,0,0-4.08-10l-.82,2.4,0-4.28a74.12,74.12,0,0,1-3.07-7.8c-.89-2.84-3-6.2-5.62-9.55L139,36.45l.06-5.78c-.39-.49-.8-1-1.21-1.44l.75.89Z" fill="#fff"/><path d="M155.86,28.73l-2,5.33,8.48,30.65c1.71-.78,2.23-3.11,2.15-6.25l-.32.27.32-.52a93.22,93.22,0,0,0-1.36-10.72l-1.41,2.11,1.09-4.14a75.74,75.74,0,0,1-1-8.33c-.12-3-1.3-6.77-3-10.67l-2.4,3.65L158,24.54c-.25-.56-.52-1.13-.8-1.7.17.35.34.71.5,1.06Z" fill="#fff"/><path d="M149,30.58l-4-3.26c.4,4.73,1.19,9.28,2.57,12.49l5.06,5.09-3.42-1.68c1.37,3,2.64,6.49,3.89,9.74L155,54l-1.68-.3c2.43,6.25,4.86,11.54,8,11.24l-8-30.79Z" fill="#fff"/><path d="M171.78,29.93l.27,33.18c1.93-.33,3.09-2.53,3.86-5.72l-.4.19.46-.44A97.21,97.21,0,0,0,177.5,46l-2,1.74,2.21-3.87a78.68,78.68,0,0,1,1.3-8.65c.67-3,.52-7.18-.1-11.56l-3.41,3,3.07-5.19c0-.24-.09-.49-.13-.73l-3.17,4.37Z" fill="#fff"/><path d="M167.82,25.11l-3.16-4.37c-.88,4.87-1.31,9.68-.79,13.27l3.73,6.51-3-2.62c.56,3.42.9,7.25,1.28,10.87l1.71,1.61L166,49.62c.75,7,1.78,13,5.06,13.5l.27-33.18Z" fill="#fff"/><path d="M236.29,80.63l-2.85,4.09-26.29,8.91c-.27-1.62,1.15-3.13,3.46-4.63l0,.38.22-.49a80.31,80.31,0,0,1,8.4-4.28l-.83,2.06,2.46-2.82a67.08,67.08,0,0,0,6.48-3.4,28.74,28.74,0,0,1,9.16-3.11L235,80.87,238.26,77l1.62-.25-1,.16Z" fill="#fff"/><path d="M238.34,86.52l4.32,1.3c.83-.46,1.64-.93,2.44-1.42-4.33,2.65-9,5-12.71,5.69l-6.17-1.15,2.89,1.64c-2.85.5-6,1.28-8.94,2l-1.74-.9,1,1.07c-5.69,1.31-10.66,2.11-12-.31l26.11-9.33Z" fill="#fff"/><path d="M229.33,67.29,203.66,82.84c-.66-1.64.49-3.57,2.58-5.69l0,.41.12-.57a87.85,87.85,0,0,1,7.86-6.48l-.39,2.36,1.93-3.55a72.23,72.23,0,0,0,6-5.1,30.94,30.94,0,0,1,8.94-5.42l-.71,4.07L232.61,58l.63-.24-1.86,4.51Z" fill="#fff"/><path d="M234.92,68l4.87.37c-3.33,3-6.82,5.6-9.84,6.9l-6.78.23,3.43,1.06c-2.89,1.19-6,2.74-9,4.17l-2-.54,1.35.87c-5.7,2.72-10.77,4.73-12.76,2.49l25.38-16Z" fill="#fff"/><path d="M225.17,52.59,230,51.7A40.85,40.85,0,0,1,222.15,61l-6.59,2,3.64.16c-2.53,1.91-5.18,4.23-7.73,6.38h-2.15l1.55.51c-4.91,4.13-9.39,7.45-11.91,5.74L219.8,53.57Z" fill="#fff"/><path d="M220.23,47.87l-.73,5.41L198.3,75.1c-1.06-1.44-.44-3.63,1.07-6.24l.15.39,0-.59a88.38,88.38,0,0,1,6.06-8.37l.21,2.42,1-4a71.71,71.71,0,0,0,4.62-6.55,31.61,31.61,0,0,1,7.39-7.6l.34,4.17,1.24-5.39c.48-.35,1-.71,1.46-1l-.9.65Z" fill="#fff"/><path d="M211.56,38.84l4.72-2.11c-1.61,4.46-3.55,8.66-5.71,11.39l-6.21,3.62,3.73-.74c-2.1,2.57-4.21,5.58-6.27,8.4l-2.19.53,1.71.14c-4,5.41-7.69,9.89-10.67,8.77l15.67-27.67Z" fill="#fff"/><path d="M205.37,35.26l.59,5.68L189.84,68.35c-1.45-1.2-1.35-3.58-.46-6.6l.24.36-.17-.59a91.65,91.65,0,0,1,4.08-10l.82,2.4,0-4.28a74.12,74.12,0,0,0,3.07-7.8c.88-2.84,3-6.2,5.62-9.55l1.38,4.16-.07-5.78c.4-.49.81-1,1.22-1.44l-.76.89Z" fill="#fff"/><path d="M187.55,28.73l2,5.33-8.48,30.65c-1.71-.78-2.23-3.11-2.16-6.25l.33.27-.32-.52a93,93,0,0,1,1.35-10.72l1.42,2.11-1.1-4.14a75.87,75.87,0,0,0,1-8.33c.12-3,1.29-6.77,3-10.67L187,30.11l-1.56-5.57.8-1.7c-.17.35-.33.71-.5,1.06Z" fill="#fff"/><path d="M194.45,30.58l4-3.26c-.4,4.73-1.19,9.28-2.57,12.49l-5.06,5.09,3.42-1.68c-1.37,3-2.63,6.49-3.88,9.74l-2,1.07,1.68-.3C187.65,60,185.21,65.27,182,65l8-30.79Z" fill="#fff"/><path d="M107.12,80.63,110,84.72l26.3,8.91c.27-1.62-1.15-3.13-3.46-4.63l0,.38-.22-.49a81.56,81.56,0,0,0-8.41-4.28l.83,2.06-2.45-2.82a65.93,65.93,0,0,1-6.48-3.4A28.83,28.83,0,0,0,107,77.34l1.45,3.53L105.16,77l-1.63-.25,1,.16Z" fill="#fff"/><path d="M105.07,86.52l-4.32,1.3c-.82-.46-1.63-.93-2.44-1.42,4.34,2.65,9,5,12.72,5.69l6.16-1.15-2.89,1.64c2.85.5,6,1.28,8.94,2l1.74-.9-1,1.07c5.7,1.31,10.67,2.11,12-.31l-26.11-9.33Z" fill="#fff"/><path d="M106.65,98.92l3.45,2.94,25.18,1.79c-.14-1.48-1.74-2.49-4.11-3.27l.12.32-.31-.38a73.56,73.56,0,0,0-8.37-1.83l1.2,1.62L121,98.19a60.28,60.28,0,0,1-6.48-1.5,26.17,26.17,0,0,0-8.78-.62l2.1,2.77-3.75-2.65c-.5,0-1,.09-1.49.15.31,0,.62-.06.93-.09Z" fill="#fff"/><path d="M106.2,104.57l-3.5,2.14c-.83-.21-1.66-.45-2.48-.69,4.42,1.34,9.11,2.31,12.5,2.08l5.15-2.43-2.16,2.11c2.62-.22,5.55-.25,8.32-.32l1.32-1.19-.67,1.17c5.31-.15,9.87-.59,10.5-3l-25.11-2.2Z" fill="#fff"/><path d="M237,98.71l-3.45,2.94-25.18,1.8c.13-1.49,1.73-2.5,4.11-3.28l-.13.32.31-.38a76,76,0,0,1,8.38-1.83l-1.21,1.62L222.68,98a59.72,59.72,0,0,0,6.48-1.5,26.46,26.46,0,0,1,8.78-.62l-2.09,2.77L239.59,96l1.49.15-.92-.09Z" fill="#fff"/><path d="M237.48,104.36,241,106.5c.83-.21,1.65-.44,2.47-.69-4.42,1.34-9.1,2.31-12.49,2.09l-5.16-2.44,2.16,2.11c-2.62-.21-5.55-.24-8.32-.31l-1.32-1.2.67,1.18c-5.31-.16-9.87-.6-10.5-3l25.11-2.2Z" fill="#fff"/><path d="M101.93,131.69v45.55h-1.07A5.36,5.36,0,0,1,95.61,173l-.7-3.31a16.08,16.08,0,0,1-7.25,6.78,23.76,23.76,0,0,1-10,2.05A21.41,21.41,0,0,1,69,176.77a19.92,19.92,0,0,1-6.81-4.93,22.91,22.91,0,0,1-4.49-7.6,28.22,28.22,0,0,1-1.62-9.78,27.7,27.7,0,0,1,1.65-9.77,23.61,23.61,0,0,1,4.54-7.6,19.7,19.7,0,0,1,6.85-4.93,21.7,21.7,0,0,1,8.71-1.73,22.5,22.5,0,0,1,10,2.13,16.88,16.88,0,0,1,7.13,6.69l1.6-7.56ZM79,172a19.62,19.62,0,0,0,6.13-1,12.67,12.67,0,0,0,5-3,14.94,14.94,0,0,0,3.4-5.38,26,26,0,0,0,0-15.87,15.1,15.1,0,0,0-3.4-5.51,13.5,13.5,0,0,0-5-3.2,18.27,18.27,0,0,0-6.21-1,15.92,15.92,0,0,0-6.51,1.27,13.43,13.43,0,0,0-4.9,3.6,16.39,16.39,0,0,0-3.12,5.54,21.55,21.55,0,0,0-1.11,7.08,22.4,22.4,0,0,0,1.07,7.09,15.39,15.39,0,0,0,3.12,5.5,14.55,14.55,0,0,0,5,3.6A15.86,15.86,0,0,0,79,172Z" fill="#fff"/><path d="M119.17,131.69v42.05a3.5,3.5,0,0,1-3.5,3.5h-.19a3.5,3.5,0,0,1-3.5-3.49l-.14-42.06Zm-3.63-17.5a5.44,5.44,0,0,1,3.74,1.3,4.48,4.48,0,0,1,1.46,3.51,4.58,4.58,0,0,1-1.46,3.59,6,6,0,0,1-7.48,0,4.55,4.55,0,0,1-1.46-3.59,4.45,4.45,0,0,1,1.46-3.51A5.44,5.44,0,0,1,115.54,114.19Z" fill="#fff"/><path d="M139.45,132.75a17.87,17.87,0,0,1,6.39,6.5l1.59-7.56h5.42v45.55h-3.74a3.43,3.43,0,0,1-3.43-3.43V152a16.36,16.36,0,0,0-1.1-6.08,15,15,0,0,0-3-4.74,13.43,13.43,0,0,0-4.33-3.08,12.86,12.86,0,0,0-5.24-1.1,24.45,24.45,0,0,0-2.84.16,15.87,15.87,0,0,0-2.76.55l-1-6.62a12,12,0,0,1,2.6-.51c.89-.08,1.78-.12,2.68-.12A16.86,16.86,0,0,1,139.45,132.75Z" fill="#fff"/><path d="M212.57,130.43c.89,0,1.78,0,2.68.12a12.09,12.09,0,0,1,2.6.51l-1,6.62a15.69,15.69,0,0,0-2.76-.55,24.41,24.41,0,0,0-2.83-.16,12.82,12.82,0,0,0-5.24,1.1,13.36,13.36,0,0,0-4.34,3.08,15,15,0,0,0-3,4.74,16.16,16.16,0,0,0-1.11,6.08v21.84a3.43,3.43,0,0,1-3.43,3.43h-3.74V131.69h5.42l1.6,7.56a17.77,17.77,0,0,1,6.38-6.5A16.87,16.87,0,0,1,212.57,130.43Z" fill="#fff"/><path d="M265.7,130.43a20.47,20.47,0,0,1,8.38,1.73,19.92,19.92,0,0,1,6.76,4.93,23,23,0,0,1,4.49,7.6,28.4,28.4,0,0,1,1.61,9.77,27.76,27.76,0,0,1-1.65,9.78,23.65,23.65,0,0,1-4.51,7.6,19.89,19.89,0,0,1-6.75,4.93,20.38,20.38,0,0,1-8.36,1.73,23.43,23.43,0,0,1-10.2-2.13,16.72,16.72,0,0,1-7.22-6.7l-.7,3.31a5.36,5.36,0,0,1-5.25,4.26h-1.07V114.19h7.17l-.09,25a16.91,16.91,0,0,1,7.36-6.65A23.51,23.51,0,0,1,265.7,130.43ZM264.28,172a15.33,15.33,0,0,0,6.41-1.31,13.86,13.86,0,0,0,4.87-3.64,16.81,16.81,0,0,0,3.11-5.54,21.56,21.56,0,0,0,1.1-7,22.38,22.38,0,0,0-1.06-7,16.56,16.56,0,0,0-3-5.54,13.68,13.68,0,0,0-4.83-3.65,15.33,15.33,0,0,0-6.41-1.3,18.39,18.39,0,0,0-6.21,1,13.34,13.34,0,0,0-5.07,3.2,16.16,16.16,0,0,0-3.46,5.47,21.25,21.25,0,0,0-1.3,7.79,23.13,23.13,0,0,0,1.22,7.92,14.52,14.52,0,0,0,3.38,5.46,13.07,13.07,0,0,0,5.07,3.13A19.15,19.15,0,0,0,264.28,172Z" fill="#fff"/><path d="M231.34,131.69l0,42.05a3.5,3.5,0,0,1-3.5,3.5h-.19a3.5,3.5,0,0,1-3.5-3.48l-.1-42.07Zm-3.67-17.5a5.47,5.47,0,0,1,3.75,1.3,4.48,4.48,0,0,1,1.46,3.51,4.58,4.58,0,0,1-1.46,3.59,6,6,0,0,1-7.49,0,4.58,4.58,0,0,1-1.46-3.59,4.48,4.48,0,0,1,1.46-3.51A5.44,5.44,0,0,1,227.67,114.19Z" fill="#fff"/><path d="M191.73,114.75c-3.76.14-10.35.66-14.07.81-.44,0-1.28,2.4-1.62,2.4l0-5.1c1.12-.45,2.5-.68,3.22-1.76a9,9,0,0,0,1.27-3c-.9-.12-2.29-.49-4-.82-.1,0-.23.24-.33.22-1.07-1.74-4.58-2.25-4.63-2.25s-4,.54-4.69,2.33c-.13,0-.22-.31-.35-.29-1.64.33-3,.69-3.89.81a9,9,0,0,0,1.27,3c.72,1.08,2.1,1.31,3.22,1.76l0,5.1c-.36,0-1.16-2.38-1.64-2.4-3.73-.15-10.32-.67-14.05-.81-5.16-.2-16.85-.88-16.84,1.17s2.91,7.26,8.39,8.42c5.13,1.08,18.39,2,24.13,2v50.12h0c.26,3.25,2.37,3.87,4,3.87l.48,0,.48,0c1.6,0,3.71-.62,4-3.87h0V126.37c5.74,0,19-1,24.13-2,5.48-1.16,8.38-6.28,8.39-8.42S196.89,114.55,191.73,114.75Z" fill="#fff"/></svg>