<svg xmlns="http://www.w3.org/2000/svg" viewBox="0 0 301.6 235.61"><title>Asset 7</title><path d="M75.51,88.36,47.7,70.87l28.1,17-2.68-6.51-2.42-5.9L69.34,75l.55,3.29-2.1-3.86c-2-.71-4-1.37-5.88-2l-.1,0-.19-.06c-1.44-.43-2.83-.82-4.16-1.17l-.15,0c-1.35-.35-2.64-.65-3.83-.91l-.21,0c-1.56-.34-3-.58-4.12-.74l-.14,0-.83-.09-.28,0-.58,0-.33,0h-.41l-.29,0a2,2,0,0,0-.3.06l-.18,0a.44.44,0,0,0-.25.17c-.08.12,0,.35,0,.63,0,0,0,.07,0,.1a9.14,9.14,0,0,0,.52,1.07c.05.07.09.15.14.23.24.42.55.89.91,1.41l.25.36c.37.53.79,1.1,1.26,1.7.1.14.22.28.33.42l.55.69.47,0-.47,0,.6.74c.48.59,1,1.2,1.54,1.83l.83,1c.83.94,1.71,1.91,2.64,2.89,0,0,.09.11.15.16l.08.09c.85.89,1.73,1.8,2.63,2.69l4.61.08-3.46,1c.92.89,1.86,1.76,2.81,2.61l.12.11,6.35-.48Z" fill="#ab8a56"/><path d="M88.25,70,65.45,45.72,88.64,69.6l-1-7.07-.86-6.41-1.19-.86-.3,3.37L84.26,54.3C82.5,53.1,80.73,52,79,50.9l-.2-.12c-2.68-1.64-5.26-3.07-7.51-4.21l-.19-.1a29.52,29.52,0,0,0-6.58-2.67h0a1.85,1.85,0,0,0-.45,0H64a.45.45,0,0,0-.29.1.52.52,0,0,0-.12.28v.14a2,2,0,0,0,0,.35l0,.21c0,.14,0,.29.08.45s0,.19.07.29l.16.56c0,.11.06.22.1.33s.14.45.22.69l.12.34c.11.28.22.58.33.89l.11.26c.32.83.71,1.75,1.15,2.73l.48.08-.48-.08c0,.07.06.13.08.19,1,2.3,2.36,5,3.87,7.7,0,.06.07.13.11.2.6,1.07,1.21,2.16,1.86,3.26L76.36,64l-3.66.14c.65,1.07,1.33,2.13,2,3.18a1.88,1.88,0,0,1,.16.23l6.35,1.16Z" fill="#ab8a56"/><path d="M105.83,53.78,88.68,23.49l17.64,30,.78-7.41.7-6.72-1-1.17-1.14,3.34,0-4.65c-1.47-1.65-3-3.24-4.47-4.74a.23.23,0,0,1-.07-.07l-.13-.13c-1.15-1.15-2.28-2.24-3.37-3.25l-.1-.1c-1.09-1-2.14-1.94-3.12-2.79l-.17-.14c-1.32-1.12-2.51-2.07-3.53-2.8l-.06-.05c-.27-.2-.52-.37-.77-.53l-.21-.14c-.19-.13-.36-.23-.53-.33l-.29-.18-.37-.18a2.63,2.63,0,0,0-.3-.14,1.08,1.08,0,0,0-.26-.08.8.8,0,0,0-.24-.07.52.52,0,0,0-.32,0,.45.45,0,0,0-.19.26s0,.09,0,.14a2.44,2.44,0,0,0-.08.34c0,.07,0,.16,0,.24s0,.3,0,.47v.3c0,.2,0,.4,0,.62s0,.23,0,.35,0,.5.06.77c0,.12,0,.24,0,.37,0,.3.07.62.11,1,0,.11,0,.22,0,.33,0,.39.11.79.17,1.21a2,2,0,0,1,0,.24c.09.51.18,1,.28,1.59l.46.21-.46-.21v0c0,.09,0,.18,0,.28.23,1.2.5,2.49.8,3.84,0,.17.08.34.13.52.31,1.34.65,2.73,1,4.15,0,.13.07.26.11.39v0c.34,1.24.7,2.5,1.09,3.77l4.25,2.39L91.48,44c.42,1.32.87,2.63,1.34,3.93l0,.07L99,50.74Z" fill="#ab8a56"/><path d="M127.15,44.65,118.41,11,127.7,44.5l2.67-7,2.42-6.31c-.22-.46-.43-.93-.65-1.39l-2,2.94,1.18-4.51c-1-2-2.06-3.92-3.12-5.77a2,2,0,0,0-.11-.2q-1.23-2.13-2.43-4l0-.06c-.79-1.27-1.57-2.46-2.31-3.54l-.13-.18c-2.29-3.33-4.2-5.59-5.12-6l0,0a.46.46,0,0,0-.33,0,.5.5,0,0,0-.24.19.83.83,0,0,0-.07.13,1.58,1.58,0,0,0-.17.32c0,.06,0,.14-.08.21s-.1.28-.15.46-.05.19-.08.28-.1.39-.15.61,0,.22-.07.34-.09.49-.13.75,0,.25-.07.39-.08.58-.13.88l-.06.44c0,.32-.07.66-.11,1,0,.16,0,.32,0,.48,0,.38-.08.78-.11,1.18l0,.36.4.32-.4-.32v.05c0,.06,0,.11,0,.17-.2,2.63-.32,5.72-.32,9a1.77,1.77,0,0,1,0,.23c0,1.29,0,2.6.07,3.93l3.5,3.41-3.42-1.72c.06,1.34.15,2.69.26,4,0,.07,0,.14,0,.2L121.36,40Z" fill="#ab8a56"/><path d="M150.57,39.11l.3-36.32.3,36.31,4.57-6.3,4.13-5.71c-.09-.52-.18-1.05-.28-1.57l-2.77,2.42,2.41-4.22c-.48-2.26-1-4.51-1.59-6.66l-.06-.23c-.22-.81-.43-1.61-.66-2.38l-.06-.22q-.3-1-.6-2l-.11-.38-.57-1.8c0-.1-.07-.21-.11-.31-.19-.59-.39-1.17-.58-1.72l-.09-.24a.88.88,0,0,0-.05-.15,50.52,50.52,0,0,0-2.26-5.51v0c-.15-.29-.28-.53-.42-.76L152,1.19l-.33-.5s-.07-.11-.11-.15-.19-.21-.27-.3-.07-.08-.1-.1a.42.42,0,0,0-.62,0,1.14,1.14,0,0,1-.11.11,3.45,3.45,0,0,0-.25.27l-.13.19c-.09.13-.19.27-.29.43l-.13.24c-.11.19-.22.39-.34.62s-.09.17-.13.26q-.19.38-.39.81c0,.09-.08.17-.11.26-.15.33-.3.68-.46,1.05a1.19,1.19,0,0,1-.08.2c-.17.42-.35.87-.53,1.34l0,.1c-.2.51-.4,1-.6,1.61l.31.43L147,7.62a2,2,0,0,1-.08.22c-.21.59-.42,1.21-.63,1.85l-.21.65c-.15.46-.3.92-.44,1.4l-.21.66c-.17.56-.33,1.13-.5,1.71l-.12.41c-.22.76-.43,1.52-.64,2.31h0l-.18.68c-.3,1.16-.59,2.33-.87,3.53l2.6,4.38-3-2.66c-.3,1.37-.56,2.75-.81,4.12a1.7,1.7,0,0,0,0,.22L146,32.8Z" fill="#ab8a56"/><path d="M238.12,113l-6.24-1.88,28.61-10.22-28.78,9.75,3.73-5.34,3.37-4.85c.44-.07.88-.15,1.32-.21L239,103.14l2.66-3.07c1.93-.25,3.85-.44,5.71-.58l.18,0h.06c2.83-.21,5.49-.3,7.77-.29h.24a42.18,42.18,0,0,1,5,.27h0l.79.13h.05l.58.15h.06a2.19,2.19,0,0,1,.37.17l.05,0a.49.49,0,0,1,.2.21.82.82,0,0,1-.17.56.36.36,0,0,0,0,.09,7.59,7.59,0,0,1-.69.86l-.17.18c-.31.33-.68.7-1.11,1.1l-.28.26c-.45.41-.95.84-1.51,1.3l-.32.27c-.21.18-.46.37-.68.55l-.42-.13.42.13-.62.49-1.87,1.43-.9.67c-.78.57-1.61,1.15-2.46,1.73-1.18.81-2.4,1.63-3.67,2.44l-4.18-.86,2.92,1.64c-1,.64-2.11,1.26-3.19,1.86Z" fill="#ab8a56"/><path d="M226.63,88.36l27.81-17.49-28.1,17L229,81.39l2.43-5.9c.45-.18.89-.36,1.35-.53l-.55,3.29,2.1-3.86c2-.71,4-1.37,5.88-2l.11,0,.19-.06c1.43-.43,2.82-.82,4.15-1.17l.15,0c1.35-.35,2.64-.65,3.83-.91l.21,0c1.56-.34,3-.58,4.12-.74l.14,0,.83-.09.28,0,.58,0,.33,0h.41l.29,0a2,2,0,0,1,.3.06l.18,0a.44.44,0,0,1,.25.17.83.83,0,0,1,0,.63l0,.1a7.77,7.77,0,0,1-.52,1.07l-.13.23c-.25.42-.56.89-.92,1.41l-.25.36c-.37.53-.79,1.1-1.26,1.7-.1.14-.22.28-.33.42l-.55.69-.47,0,.47,0-.6.74c-.48.59-1,1.2-1.54,1.83l-.83,1c-.83.94-1.71,1.91-2.63,2.89-.06,0-.1.11-.16.16l-.08.09c-.85.89-1.72,1.8-2.63,2.69l-4.61.08,3.46,1c-.91.89-1.86,1.76-2.81,2.61l-.11.11-6.36-.48Z" fill="#ab8a56"/><path d="M213.89,70l22.8-24.26L213.5,69.6l1-7.07.86-6.41,1.19-.86.3,3.37,1.08-4.33c1.75-1.2,3.53-2.34,5.26-3.4l.2-.12c2.68-1.64,5.26-3.07,7.51-4.21l.19-.1a29.52,29.52,0,0,1,6.58-2.67h0a1.85,1.85,0,0,1,.45,0h.06a.45.45,0,0,1,.29.1.52.52,0,0,1,.12.28.66.66,0,0,1,0,.14,2,2,0,0,1,0,.35l0,.21c0,.14,0,.29-.08.45s-.05.19-.07.29-.1.36-.15.56-.07.22-.11.33-.14.45-.22.69l-.12.34c-.1.28-.21.58-.33.89a2.77,2.77,0,0,0-.1.26c-.33.83-.72,1.75-1.16,2.73l-.48.08.48-.08c0,.07,0,.13-.08.19-1,2.3-2.36,5-3.87,7.7,0,.06-.07.13-.11.2-.6,1.07-1.21,2.16-1.86,3.26L225.78,64l3.66.14c-.65,1.07-1.33,2.13-2,3.18l-.16.23-6.35,1.16Z" fill="#ab8a56"/><path d="M196.31,53.78l17.16-30.29-17.65,30-.77-7.41-.71-6.72,1-1.17,1.14,3.34,0-4.65c1.47-1.65,3-3.24,4.48-4.74l.06-.07.14-.13c1.14-1.15,2.27-2.24,3.36-3.25l.11-.1c1.08-1,2.13-1.94,3.12-2.79l.17-.14c1.31-1.12,2.5-2.07,3.52-2.8l.06-.05c.27-.2.52-.37.77-.53l.21-.14c.19-.13.36-.23.53-.33l.3-.18.36-.18a2.63,2.63,0,0,1,.3-.14,1.08,1.08,0,0,1,.26-.08.9.9,0,0,1,.24-.07.52.52,0,0,1,.32,0,.45.45,0,0,1,.19.26,1.27,1.27,0,0,1,0,.14,2.44,2.44,0,0,1,.08.34c0,.07,0,.16,0,.24s0,.3,0,.47v.3c0,.2,0,.4,0,.62s0,.23,0,.35,0,.5-.06.77c0,.12,0,.24,0,.37,0,.3-.07.62-.11,1,0,.11,0,.22,0,.33-.06.39-.12.79-.18,1.21a2,2,0,0,0,0,.24c-.08.51-.17,1-.28,1.59l-.46.21.46-.21v0c0,.09,0,.18-.05.28-.22,1.2-.5,2.49-.8,3.84l-.12.52c-.31,1.34-.66,2.73-1,4.15,0,.13-.07.26-.1.39v0c-.34,1.24-.69,2.5-1.09,3.77l-4.25,2.39,3.75-.77c-.42,1.32-.87,2.63-1.34,3.93l0,.07-6.18,2.76Z" fill="#ab8a56"/><path d="M175,44.65,183.73,11,174.44,44.5l-2.67-7-2.42-6.31c.22-.46.43-.93.66-1.39l2,2.94-1.19-4.51c1-2,2.06-3.92,3.12-5.77l.11-.2q1.23-2.13,2.43-4l0-.06c.79-1.27,1.57-2.46,2.31-3.54l.13-.18c2.29-3.33,4.2-5.59,5.13-6l0,0a.46.46,0,0,1,.33,0,.5.5,0,0,1,.24.19.83.83,0,0,1,.07.13,1.58,1.58,0,0,1,.17.32c0,.06,0,.14.08.21s.11.28.16.46l.07.28c0,.19.1.39.15.61s0,.22.07.34.09.49.14.75,0,.25.06.39.09.58.13.88l.06.44c0,.32.07.66.11,1,0,.16,0,.32,0,.48,0,.38.08.78.11,1.18l0,.36-.39.32.39-.32v.05c0,.06,0,.11,0,.17.2,2.63.32,5.72.32,9v.23c0,1.29,0,2.6-.07,3.93l-3.5,3.41,3.43-1.72c-.07,1.34-.16,2.69-.27,4,0,.07,0,.14,0,.2L180.79,40Z" fill="#ab8a56"/><path d="M64,113l6.24-1.88L41.65,100.92l28.78,9.75-3.73-5.34-3.36-4.85c-.44-.07-.88-.15-1.33-.21l1.16,2.87-2.67-3.07c-1.93-.25-3.85-.44-5.7-.58l-.19,0h0c-2.84-.21-5.5-.3-7.78-.29h-.24a42.45,42.45,0,0,0-5,.27h0l-.79.13h0l-.58.15h-.06a2.63,2.63,0,0,0-.37.17l0,0a.49.49,0,0,0-.2.21.82.82,0,0,0,.17.56l0,.09a7.34,7.34,0,0,0,.68.86l.17.18c.31.33.68.7,1.11,1.1l.28.26c.46.41,1,.84,1.51,1.3l.33.27c.21.18.45.37.68.55l.41-.13-.41.13.61.49c.59.46,1.22.94,1.88,1.43l.89.67c.79.57,1.61,1.15,2.46,1.73,1.18.81,2.4,1.63,3.67,2.44l4.18-.86-2.92,1.64c1.05.64,2.12,1.26,3.19,1.86Z" fill="#ab8a56"/><path d="M65.5,136.6l5-3.09L43,131.1l27.56,2-4.51-3.84L62,125.73l-1.21.12,1.68,2.25L59.41,126c-1.75.22-3.48.5-5.15.8l-.16,0h-.05c-2.54.47-4.9,1-6.91,1.53l-.07,0-.14,0a36.53,36.53,0,0,0-4.31,1.38h0l-.66.29,0,0a3.43,3.43,0,0,0-.48.27l0,0a2.67,2.67,0,0,0-.29.23l0,0a.4.4,0,0,0-.12.23c0,.12.1.28.28.46a.34.34,0,0,0,.06.06,5.52,5.52,0,0,0,.79.6l.19.12c.35.22.77.46,1.24.71l.31.17c.49.25,1,.52,1.62.8l.35.16c.22.11.48.22.72.32l.34-.2-.34.2.65.29,2,.83c.32.13.62.26.95.38.82.33,1.68.65,2.56,1,1.23.45,2.48.89,3.79,1.3l3.48-1.71-2.19,2.11c1.07.32,2.15.63,3.23.91Z" fill="#ab8a56"/><path d="M237,136.33l-5.06-3.09,27.52-2.41-27.56,2,4.51-3.85,4.08-3.48,1.21.12L240,127.83l3.05-2.09c1.75.23,3.48.5,5.15.81l.17,0h0c2.54.47,4.9,1,6.91,1.53l.07,0,.14,0a38.78,38.78,0,0,1,4.31,1.37l0,0,.66.29,0,0a5,5,0,0,1,.48.26l.05,0a2.67,2.67,0,0,1,.29.23l0,0a.4.4,0,0,1,.12.23c0,.12-.1.28-.28.46l-.06.06a5.52,5.52,0,0,1-.79.6l-.19.12c-.35.22-.77.46-1.24.71l-.3.17c-.5.25-1,.52-1.63.8l-.35.16c-.22.11-.48.22-.72.32l-.34-.2.34.2-.65.29-2,.83-.95.38c-.82.32-1.68.64-2.56,1-1.23.45-2.48.88-3.79,1.3l-3.48-1.71,2.19,2.11c-1.07.32-2.15.62-3.23.91Z" fill="#ab8a56"/><path d="M75.8,87.9l33.53,20.32c.86-2.15-.63-4.67-3.36-7.43l-.06.53-.16-.75a113.68,113.68,0,0,0-10.27-8.46L96,95.19l-2.52-4.63a97.8,97.8,0,0,1-7.9-6.67c-2.62-2.57-6.89-5-11.68-7.09l.93,5.32-3.31-6.31-.81-.32,2.42,5.9Z" fill="none" stroke="#ab8a56" stroke-miterlimit="10" stroke-width="0.5"/><path d="M68.49,88.88l-6.35.48c4.34,3.9,8.91,7.32,12.85,9l8.86.3-4.49,1.38c3.79,1.56,7.84,3.59,11.73,5.45l2.67-.71L92,106c7.45,3.55,14.06,6.17,16.66,3.25L75.51,88.36Z" fill="none" stroke="#ab8a56" stroke-miterlimit="10" stroke-width="0.5"/><path d="M81.23,68.7l-6.35-1.16c3.27,4.94,6.87,9.45,10.3,12.13l8.6,2.56L89,82.44c3.31,2.49,6.77,5.52,10.1,8.34h2.81l-2,.67c6.41,5.4,12.26,9.74,15.55,7.5L88.25,70Z" fill="none" stroke="#ab8a56" stroke-miterlimit="10" stroke-width="0.5"/><path d="M87.68,62.53l1,7.07,27.69,28.5c1.39-1.88.57-4.74-1.4-8.15l-.19.51,0-.77a116.37,116.37,0,0,0-7.91-10.93l-.29,3.15-1.28-5.18a94.62,94.62,0,0,1-6-8.56c-1.92-3.19-5.48-6.65-9.65-9.93l-.45,5.45-1.62-7c-.63-.47-1.27-.93-1.91-1.39l1.19.86Z" fill="none" stroke="#ab8a56" stroke-miterlimit="10" stroke-width="0.5"/><path d="M99,50.74,92.85,48c2.09,5.83,4.64,11.31,7.46,14.88l8.11,4.72-4.88-1c2.75,3.36,5.51,7.3,8.19,11l2.86.68-2.23.18c5.18,7.07,10,12.92,14,11.47L105.83,53.78Z" fill="none" stroke="#ab8a56" stroke-miterlimit="10" stroke-width="0.5"/><path d="M107.1,46.07l-.78,7.41,21.07,35.81c1.88-1.57,1.75-4.68.6-8.62l-.32.46.23-.77a124.18,124.18,0,0,0-5.33-13.06l-1.07,3.14,0-5.6a97.91,97.91,0,0,1-4-10.18c-1.16-3.71-3.93-8.11-7.34-12.47l-1.81,5.42.09-7.55c-.52-.63-1.05-1.26-1.59-1.88l1,1.17Z" fill="none" stroke="#ab8a56" stroke-miterlimit="10" stroke-width="0.5"/><path d="M130.37,37.53l-2.67,7,11.08,40c2.23-1,2.91-4.06,2.81-8.17l-.42.37.42-.7a123.75,123.75,0,0,0-1.77-14L138,64.79l1.43-5.4a98.52,98.52,0,0,1-1.25-10.88c-.15-3.88-1.69-8.85-3.86-13.95l-3.14,4.77,2-7.27c-.34-.74-.69-1.48-1-2.23.22.46.43.93.65,1.39Z" fill="none" stroke="#ab8a56" stroke-miterlimit="10" stroke-width="0.5"/><path d="M121.36,40l-5.25-4.26c.52,6.17,1.55,12.12,3.35,16.31l6.62,6.65-4.47-2.19c1.79,3.95,3.44,8.47,5.08,12.73l2.58,1.39-2.2-.4c3.18,8.17,6.36,15.08,10.5,14.69L127.15,44.65Z" fill="none" stroke="#ab8a56" stroke-miterlimit="10" stroke-width="0.5"/><path d="M151.17,39.1l.35,43.34c2.52-.43,4-3.31,5-7.47l-.53.25.61-.58a128.41,128.41,0,0,0,2-14.58L156,62.33l2.9-5.07A103.43,103.43,0,0,1,160.62,46c.88-4,.68-9.37-.13-15.1l-4.46,4,4-6.77-.18-1-4.13,5.71Z" fill="none" stroke="#ab8a56" stroke-miterlimit="10" stroke-width="0.5"/><path d="M146,32.8l-4.14-5.7c-1.14,6.36-1.71,12.63-1,17.33l4.86,8.5-3.9-3.42c.73,4.47,1.17,9.47,1.68,14.2l2.22,2.1-2.1-1c1,9.09,2.33,16.92,6.62,17.64l.35-43.35Z" fill="none" stroke="#ab8a56" stroke-miterlimit="10" stroke-width="0.5"/><path d="M235.44,105.33l-3.73,5.34-34.34,11.64c-.36-2.11,1.5-4.1,4.52-6l-.06.49.29-.64a104.91,104.91,0,0,1,11-5.59L212,113.21l3.2-3.68a86.38,86.38,0,0,0,8.47-4.44c2.88-1.79,7.22-3.12,12-4.06l-1.91,4.62,4.25-5c.71-.12,1.42-.24,2.13-.34-.44.06-.88.14-1.32.21Z" fill="none" stroke="#ab8a56" stroke-miterlimit="10" stroke-width="0.5"/><path d="M238.12,113l5.64,1.7c1.08-.6,2.14-1.22,3.19-1.86-5.66,3.47-11.82,6.52-16.61,7.44l-8.06-1.51,3.78,2.15c-3.73.65-7.8,1.67-11.68,2.58l-2.27-1.18,1.36,1.39c-7.44,1.71-13.94,2.76-15.7-.4l34.11-12.19Z" fill="none" stroke="#ab8a56" stroke-miterlimit="10" stroke-width="0.5"/><path d="M226.34,87.9l-33.53,20.32c-.86-2.15.64-4.67,3.37-7.43l0,.53.16-.75a113.68,113.68,0,0,1,10.27-8.46l-.51,3.08,2.52-4.63a97.8,97.8,0,0,0,7.9-6.67c2.62-2.57,6.89-5,11.68-7.09l-.93,5.32,3.31-6.31.82-.32L229,81.39Z" fill="none" stroke="#ab8a56" stroke-miterlimit="10" stroke-width="0.5"/><path d="M233.65,88.88l6.36.48c-4.35,3.9-8.92,7.32-12.86,9l-8.86.3,4.49,1.38c-3.78,1.56-7.84,3.59-11.72,5.45l-2.68-.71,1.77,1.15c-7.46,3.55-14.07,6.17-16.67,3.25l33.15-20.84Z" fill="none" stroke="#ab8a56" stroke-miterlimit="10" stroke-width="0.5"/><path d="M220.91,68.7l6.35-1.16C224,72.48,220.39,77,217,79.67l-8.6,2.56,4.75.21c-3.31,2.49-6.77,5.52-10.1,8.34H200.2l2,.67c-6.42,5.4-12.26,9.74-15.56,7.5l27.22-29Z" fill="none" stroke="#ab8a56" stroke-miterlimit="10" stroke-width="0.5"/><path d="M214.46,62.53l-1,7.07L185.81,98.1c-1.39-1.88-.57-4.74,1.4-8.15l.19.51,0-.77a114.82,114.82,0,0,1,7.92-10.93l.28,3.15,1.28-5.18a94.62,94.62,0,0,0,6-8.56c1.92-3.19,5.49-6.65,9.65-9.93l.45,5.45,1.62-7c.63-.47,1.27-.93,1.91-1.39l-1.19.86Z" fill="none" stroke="#ab8a56" stroke-miterlimit="10" stroke-width="0.5"/><path d="M203.12,50.74,209.3,48c-2.1,5.83-4.64,11.31-7.47,14.88l-8.11,4.72,4.88-1c-2.74,3.36-5.5,7.3-8.19,11l-2.86.68,2.23.18c-5.18,7.07-10,12.92-13.94,11.47l20.47-36.15Z" fill="none" stroke="#ab8a56" stroke-miterlimit="10" stroke-width="0.5"/><path d="M195.05,46.07l.77,7.41L174.75,89.29c-1.88-1.57-1.75-4.68-.59-8.62l.31.46-.23-.77a124.18,124.18,0,0,1,5.33-13.06l1.07,3.14,0-5.6a97.91,97.91,0,0,0,4-10.18c1.16-3.71,3.93-8.11,7.34-12.47l1.81,5.42-.09-7.55c.52-.63,1.06-1.26,1.59-1.88l-1,1.17Z" fill="none" stroke="#ab8a56" stroke-miterlimit="10" stroke-width="0.5"/><path d="M171.77,37.53l2.67,7-11.08,40c-2.23-1-2.91-4.06-2.81-8.17l.42.37-.41-.7a121.3,121.3,0,0,1,1.76-14l1.85,2.75-1.42-5.4A100.86,100.86,0,0,0,164,48.51c.16-3.88,1.69-8.85,3.86-13.95L171,39.33l-2-7.27c.34-.74.69-1.48,1-2.23-.23.46-.44.93-.66,1.39Z" fill="none" stroke="#ab8a56" stroke-miterlimit="10" stroke-width="0.5"/><path d="M180.79,40,186,35.69c-.52,6.17-1.55,12.12-3.35,16.31l-6.61,6.65,4.46-2.19c-1.79,3.95-3.44,8.47-5.07,12.73l-2.59,1.39,2.2-.4c-3.17,8.17-6.36,15.08-10.5,14.69L175,44.65Z" fill="none" stroke="#ab8a56" stroke-miterlimit="10" stroke-width="0.5"/><path d="M66.7,105.33l3.73,5.34,34.35,11.64c.35-2.11-1.51-4.1-4.52-6l0,.49-.29-.64a104.91,104.91,0,0,0-11-5.59l1.09,2.68-3.21-3.68a86.38,86.38,0,0,1-8.47-4.44c-2.88-1.79-7.22-3.12-12-4.06l1.91,4.62-4.25-5c-.71-.12-1.42-.24-2.13-.34.45.06.89.14,1.33.21Z" fill="none" stroke="#ab8a56" stroke-miterlimit="10" stroke-width="0.5"/><path d="M64,113l-5.65,1.7c-1.07-.6-2.14-1.22-3.19-1.86,5.66,3.47,11.82,6.52,16.61,7.44l8.06-1.51-3.78,2.15c3.73.65,7.8,1.67,11.68,2.58L90,122.34l-1.35,1.39c7.43,1.71,13.93,2.76,15.69-.4l-34.1-12.19Z" fill="none" stroke="#ab8a56" stroke-miterlimit="10" stroke-width="0.5"/><path d="M66.08,129.22l4.51,3.84,32.89,2.34c-.17-1.93-2.26-3.25-5.37-4.27l.16.42-.4-.5a97.53,97.53,0,0,0-10.94-2.39l1.57,2.11-3.67-2.5a82.29,82.29,0,0,1-8.47-2c-2.94-.92-7.07-1.08-11.46-.82l2.74,3.62-4.9-3.46-2,.2,1.21-.12Z" fill="none" stroke="#ab8a56" stroke-miterlimit="10" stroke-width="0.5"/><path d="M65.5,136.6l-4.58,2.8c-1.08-.28-2.16-.59-3.23-.91,5.77,1.75,11.89,3,16.32,2.73L80.75,138l-2.83,2.76c3.43-.29,7.25-.33,10.87-.42l1.73-1.56-.88,1.53c6.94-.2,12.89-.77,13.72-4l-32.81-2.88Z" fill="none" stroke="#ab8a56" stroke-miterlimit="10" stroke-width="0.5"/><path d="M236.41,128.94l-4.51,3.85L199,135.13c.18-1.94,2.26-3.25,5.37-4.27l-.16.42.4-.5a97.53,97.53,0,0,1,10.94-2.39L214,130.5l3.67-2.5a82.29,82.29,0,0,0,8.47-2c2.94-.92,7.07-1.08,11.46-.82l-2.74,3.62,4.9-3.46,1.95.2-1.21-.12Z" fill="none" stroke="#ab8a56" stroke-miterlimit="10" stroke-width="0.5"/><path d="M237,136.33l4.57,2.8c1.08-.29,2.16-.59,3.23-.91-5.77,1.75-11.89,3-16.32,2.73l-6.74-3.18,2.83,2.76c-3.43-.29-7.25-.33-10.87-.42L212,138.55l.88,1.53c-6.94-.2-12.89-.77-13.72-4l32.81-2.88Z" fill="none" stroke="#ab8a56" stroke-miterlimit="10" stroke-width="0.5"/><path d="M59.91,172v59.5H58.52A7,7,0,0,1,51.66,226l-.91-4.33a21,21,0,0,1-9.47,8.86,31.2,31.2,0,0,1-13.07,2.67,27.82,27.82,0,0,1-11.33-2.26A26,26,0,0,1,8,224.48a30.15,30.15,0,0,1-5.87-9.94A36.81,36.81,0,0,1,0,201.78,36.17,36.17,0,0,1,2.16,189a30.73,30.73,0,0,1,5.92-9.93,25.8,25.8,0,0,1,9-6.44,28.12,28.12,0,0,1,11.37-2.26,29.35,29.35,0,0,1,13,2.78,22.13,22.13,0,0,1,9.31,8.75L52.83,172Zm-30,52.6a25.27,25.27,0,0,0,8-1.24,16.69,16.69,0,0,0,6.56-4,19.63,19.63,0,0,0,4.43-7,29.35,29.35,0,0,0,1.66-10.5A29.8,29.8,0,0,0,49,191.64a19.62,19.62,0,0,0-4.44-7.18,17.57,17.57,0,0,0-6.61-4.19,23.82,23.82,0,0,0-8.1-1.35,20.84,20.84,0,0,0-8.51,1.66,17.75,17.75,0,0,0-6.4,4.7,21.8,21.8,0,0,0-4.08,7.24,28.33,28.33,0,0,0-1.44,9.26A29.15,29.15,0,0,0,10.76,211a20.22,20.22,0,0,0,4.08,7.19,18.86,18.86,0,0,0,6.5,4.7A20.72,20.72,0,0,0,29.91,224.63Z" fill="#5e4a4a"/><path d="M82.43,172V227a4.57,4.57,0,0,1-4.56,4.57h-.25A4.57,4.57,0,0,1,73.05,227L72.86,172ZM77.7,149.17a7.08,7.08,0,0,1,4.89,1.7,5.82,5.82,0,0,1,1.9,4.58,6,6,0,0,1-1.9,4.69,7.92,7.92,0,0,1-9.78,0,6,6,0,0,1-1.91-4.69,5.83,5.83,0,0,1,1.91-4.58A7.08,7.08,0,0,1,77.7,149.17Z" fill="#5e4a4a"/><path d="M108.94,173.42a23.27,23.27,0,0,1,8.34,8.49l2.08-9.88h7.08v59.5h-4.89a4.48,4.48,0,0,1-4.48-4.48V198.52a21.25,21.25,0,0,0-1.44-7.94,19.51,19.51,0,0,0-3.86-6.19,17.3,17.3,0,0,0-5.66-4,16.74,16.74,0,0,0-6.85-1.45,32.65,32.65,0,0,0-3.7.21,21.56,21.56,0,0,0-3.61.72l-1.34-8.65a16.92,16.92,0,0,1,3.4-.67c1.17-.1,2.33-.15,3.5-.15A22,22,0,0,1,108.94,173.42Z" fill="#5e4a4a"/><path d="M204.44,170.38c1.17,0,2.34.05,3.5.15a16.78,16.78,0,0,1,3.4.67L210,179.85a21.65,21.65,0,0,0-3.6-.72,33,33,0,0,0-3.71-.21,16.66,16.66,0,0,0-6.84,1.45,17.45,17.45,0,0,0-5.67,4,19.69,19.69,0,0,0-3.86,6.19,21.25,21.25,0,0,0-1.44,7.94v28.53a4.48,4.48,0,0,1-4.47,4.48h-4.89V172h7.07l2.09,9.88a23.12,23.12,0,0,1,8.34-8.49A22,22,0,0,1,204.44,170.38Z" fill="#5e4a4a"/><path d="M273.85,170.38a26.63,26.63,0,0,1,10.95,2.26,26,26,0,0,1,8.83,6.44,30.08,30.08,0,0,1,5.86,9.93,36.87,36.87,0,0,1,2.11,12.77,36.34,36.34,0,0,1-2.15,12.76,30.92,30.92,0,0,1-5.9,9.94,25.94,25.94,0,0,1-8.82,6.43,26.46,26.46,0,0,1-10.92,2.26,30.65,30.65,0,0,1-13.32-2.77,21.84,21.84,0,0,1-9.44-8.76l-.91,4.33a7,7,0,0,1-6.85,5.56h-1.4V149.17h9.37l-.12,32.63a22.16,22.16,0,0,1,9.61-8.69A30.88,30.88,0,0,1,273.85,170.38ZM272,224.63a19.94,19.94,0,0,0,8.37-1.71,18.21,18.21,0,0,0,6.37-4.75,22.1,22.1,0,0,0,4.05-7.24,28,28,0,0,0,1.44-9.15,28.78,28.78,0,0,0-1.39-9.15,21.53,21.53,0,0,0-3.95-7.24,17.75,17.75,0,0,0-6.31-4.76,19.94,19.94,0,0,0-8.37-1.71,24,24,0,0,0-8.11,1.35,17.34,17.34,0,0,0-6.63,4.19,20.8,20.8,0,0,0-4.52,7.13,27.71,27.71,0,0,0-1.69,10.19,30.17,30.17,0,0,0,1.59,10.34,19,19,0,0,0,4.42,7.13,17.15,17.15,0,0,0,6.62,4.09A25.06,25.06,0,0,0,272,224.63Z" fill="#5e4a4a"/><path d="M229,172,228.92,227a4.58,4.58,0,0,1-4.57,4.57h-.25a4.57,4.57,0,0,1-4.57-4.55L219.39,172Zm-4.79-22.86a7.08,7.08,0,0,1,4.89,1.7,5.82,5.82,0,0,1,1.9,4.58,6,6,0,0,1-1.9,4.69,7.92,7.92,0,0,1-9.78,0,6,6,0,0,1-1.9-4.69,5.82,5.82,0,0,1,1.9-4.58A7.08,7.08,0,0,1,224.18,149.17Z" fill="#5e4a4a"/><path d="M177.22,149.89c-4.91.19-13.52.87-18.37,1.07-.58,0-1.68,3.13-2.12,3.13l0-6.66c1.46-.59,3.27-.88,4.21-2.3a11.87,11.87,0,0,0,1.65-4c-1.17-.16-3-.64-5.18-1.07-.14,0-.3.32-.44.29-1.39-2.27-6-2.94-6-2.94s-5.21.7-6.12,3c-.18,0-.3-.41-.47-.37-2.14.43-3.93.9-5.08,1a11.77,11.77,0,0,0,1.66,4c.94,1.42,2.74,1.71,4.2,2.3l0,6.66c-.47,0-1.51-3.11-2.13-3.13-4.88-.21-13.49-.88-18.36-1.07-6.74-.25-22-1.14-22,1.53s3.8,9.49,11,11c6.7,1.41,24,2.68,31.52,2.65v65.47h0c.35,4.25,3.1,5.06,5.2,5.06l.63,0c.2,0,.41,0,.62,0,2.1,0,4.86-.81,5.21-5.06h0V165.08c7.5,0,24.83-1.24,31.53-2.65,7.15-1.52,10.94-8.21,10.95-11S184,149.64,177.22,149.89Z" fill="#5e4a4a"/></svg>