<svg xmlns="http://www.w3.org/2000/svg" viewBox="0 0 37.91 31.54"><title>Asset 12</title><path d="M18.91,7.68c-5.37,0-9.71,3.67-9.68,8.14s4.39,8.07,9.76,8,9.72-3.67,9.69-8.14S24.29,7.65,18.91,7.68ZM19,21c-3.49,0-6.33-2.32-6.34-5.22s2.8-5.26,6.29-5.28,6.32,2.32,6.34,5.22S22.47,21,19,21Z" fill="#fff"/><path d="M29,5.42a2.11,2.11,0,0,0-2.27,1.9A2.11,2.11,0,0,0,29,9.2,2.12,2.12,0,0,0,31.3,7.3,2.11,2.11,0,0,0,29,5.42Z" fill="#fff"/><path d="M37.75,9.18a9.75,9.75,0,0,0-.9-3.82,7.67,7.67,0,0,0-2.2-2.78A9.45,9.45,0,0,0,31.29.78a16,16,0,0,0-4.6-.71C24.67,0,24,0,18.87,0s-5.79,0-7.81.14A16.36,16.36,0,0,0,6.47.9,9.51,9.51,0,0,0,3.12,2.74,7.71,7.71,0,0,0,1,5.54,9.86,9.86,0,0,0,.09,9.37C0,11.05,0,11.59,0,15.87s0,4.81.15,6.49a9.75,9.75,0,0,0,.9,3.82A7.75,7.75,0,0,0,3.25,29a9.75,9.75,0,0,0,3.37,1.8,16.63,16.63,0,0,0,4.6.71c2,.06,2.67.08,7.81.05s5.79-.05,7.81-.13a16.33,16.33,0,0,0,4.6-.76,9.74,9.74,0,0,0,3.35-1.83A7.85,7.85,0,0,0,37,26a10,10,0,0,0,.86-3.83c.08-1.68.1-2.21.08-6.49S37.85,10.86,37.75,9.18ZM34.41,22.06A7.41,7.41,0,0,1,33.77,25a4.85,4.85,0,0,1-1.41,1.82A6,6,0,0,1,30.19,28a12.39,12.39,0,0,1-3.52.56c-2,.09-2.59.11-7.65.13s-5.66,0-7.66-.05a12.05,12.05,0,0,1-3.52-.53A6.17,6.17,0,0,1,5.66,27a5,5,0,0,1-1.43-1.81,7.63,7.63,0,0,1-.67-2.92c-.1-1.66-.12-2.16-.14-6.37s0-4.71.08-6.37a7.46,7.46,0,0,1,.64-2.93A4.93,4.93,0,0,1,5.55,4.73,6.18,6.18,0,0,1,7.72,3.54,12.38,12.38,0,0,1,11.23,3c2-.08,2.6-.1,7.66-.13s5.66,0,7.66,0a12.8,12.8,0,0,1,3.52.53A6.11,6.11,0,0,1,32.25,4.6a4.93,4.93,0,0,1,1.43,1.8,7.55,7.55,0,0,1,.66,2.93c.1,1.66.12,2.16.15,6.36S34.49,20.4,34.41,22.06Z" fill="#fff"/></svg>