<svg xmlns="http://www.w3.org/2000/svg" viewBox="0 0 166.35 54.14"><title>Asset 2</title><path d="M33.05,19.07V51.89h-.78a3.87,3.87,0,0,1-3.78-3.07L28,46.44a11.5,11.5,0,0,1-5.22,4.88,17.24,17.24,0,0,1-7.21,1.48,15.4,15.4,0,0,1-6.25-1.25A14.29,14.29,0,0,1,4.4,48a16.68,16.68,0,0,1-3.24-5.48,20.51,20.51,0,0,1-1.16-7,20,20,0,0,1,1.19-7A16.92,16.92,0,0,1,4.46,23,14.22,14.22,0,0,1,9.4,19.41a15.56,15.56,0,0,1,6.27-1.25,16.22,16.22,0,0,1,7.18,1.53A12.27,12.27,0,0,1,28,24.52l1.15-5.45Zm-16.56,29a14,14,0,0,0,4.42-.68,9.26,9.26,0,0,0,3.61-2.2A10.84,10.84,0,0,0,27,41.33a16.36,16.36,0,0,0,.91-5.79A16.55,16.55,0,0,0,27,29.89a10.78,10.78,0,0,0-2.45-4,9.66,9.66,0,0,0-3.64-2.31,13.11,13.11,0,0,0-4.47-.75,11.56,11.56,0,0,0-4.7.92,9.9,9.9,0,0,0-3.53,2.59,12,12,0,0,0-2.25,4,15.65,15.65,0,0,0-.79,5.11,15.87,15.87,0,0,0,.77,5.1,11.18,11.18,0,0,0,2.24,4,10.5,10.5,0,0,0,3.59,2.59A11.4,11.4,0,0,0,16.49,48.08Z" fill="#ab8a56"/><path d="M45.47,19.07v30.3A2.52,2.52,0,0,1,43,51.89h-.14a2.52,2.52,0,0,1-2.52-2.51l-.1-30.31ZM42.85,6.46a3.93,3.93,0,0,1,2.7.94A3.23,3.23,0,0,1,46.6,9.93a3.27,3.27,0,0,1-1.05,2.58,4.33,4.33,0,0,1-5.39,0,3.27,3.27,0,0,1-1-2.58,3.23,3.23,0,0,1,1-2.53A3.92,3.92,0,0,1,42.85,6.46Z" fill="#ab8a56"/><path d="M60.09,19.84a12.73,12.73,0,0,1,4.59,4.68l1.15-5.45h3.91V51.89H67a2.48,2.48,0,0,1-2.47-2.47V33.68a11.73,11.73,0,0,0-.79-4.38,10.84,10.84,0,0,0-2.13-3.41,9.5,9.5,0,0,0-3.13-2.22,9.18,9.18,0,0,0-3.77-.8,17.62,17.62,0,0,0-2,.12,10.86,10.86,0,0,0-2,.4L50,18.62a8.37,8.37,0,0,1,1.87-.37c.65-.06,1.29-.09,1.93-.09A12.19,12.19,0,0,1,60.09,19.84Z" fill="#ab8a56"/><path d="M112.76,18.16c.64,0,1.29,0,1.93.09a8.58,8.58,0,0,1,1.88.37l-.74,4.77a11.14,11.14,0,0,0-2-.4,17.45,17.45,0,0,0-2-.12,9.19,9.19,0,0,0-3.78.8,9.57,9.57,0,0,0-3.12,2.22,10.84,10.84,0,0,0-2.13,3.41,11.73,11.73,0,0,0-.8,4.38V49.42a2.47,2.47,0,0,1-2.47,2.47H96.81V19.07h3.9l1.15,5.45a12.75,12.75,0,0,1,4.6-4.68A12.13,12.13,0,0,1,112.76,18.16Z" fill="#ab8a56"/><path d="M151,18.16a14.71,14.71,0,0,1,6,1.25A14.37,14.37,0,0,1,162,23a16.84,16.84,0,0,1,3.23,5.48,20.47,20.47,0,0,1,1.16,7,20,20,0,0,1-1.19,7A17.06,17.06,0,0,1,161.91,48a14.39,14.39,0,0,1-4.86,3.55,14.7,14.7,0,0,1-6,1.25,16.81,16.81,0,0,1-7.35-1.54,12,12,0,0,1-5.2-4.82l-.5,2.38a3.87,3.87,0,0,1-3.78,3.07h-.77V6.46h5.16l-.06,18a12.14,12.14,0,0,1,5.3-4.79A16.91,16.91,0,0,1,151,18.16Zm-1,29.92a11,11,0,0,0,4.62-.94,9.93,9.93,0,0,0,3.51-2.62,12.12,12.12,0,0,0,2.24-4,15.46,15.46,0,0,0,.79-5.05,16,16,0,0,0-.76-5,12,12,0,0,0-2.18-4,9.77,9.77,0,0,0-3.49-2.62,11,11,0,0,0-4.61-.95,13.21,13.21,0,0,0-4.48.75A9.54,9.54,0,0,0,142,25.93a11.31,11.31,0,0,0-2.49,3.93,15.13,15.13,0,0,0-.94,5.62,16.69,16.69,0,0,0,.88,5.7,10.6,10.6,0,0,0,2.44,3.94,9.26,9.26,0,0,0,3.65,2.25A13.68,13.68,0,0,0,150,48.08Z" fill="#ab8a56"/><path d="M126.29,19.07l0,30.3a2.52,2.52,0,0,1-2.52,2.52h-.14a2.52,2.52,0,0,1-2.52-2.51L121,19.07ZM123.65,6.46a3.92,3.92,0,0,1,2.69.94,3.23,3.23,0,0,1,1,2.53,3.27,3.27,0,0,1-1,2.58,4.33,4.33,0,0,1-5.39,0,3.27,3.27,0,0,1-1-2.58,3.23,3.23,0,0,1,1-2.53A3.93,3.93,0,0,1,123.65,6.46Z" fill="#ab8a56"/><path d="M97.75,6.86c-2.71.11-7.46.48-10.14.59-.32,0-.92,1.73-1.17,1.73l0-3.68c.8-.32,1.8-.48,2.32-1.26a6.58,6.58,0,0,0,.91-2.19C89,2,88,1.7,86.79,1.46c-.07,0-.16.18-.24.16C85.78.37,83.25,0,83.22,0s-2.87.39-3.38,1.68c-.1,0-.16-.23-.26-.21-1.18.24-2.16.5-2.8.58a6.48,6.48,0,0,0,.92,2.19c.51.78,1.51.94,2.32,1.26l0,3.68c-.26,0-.84-1.72-1.18-1.73-2.69-.11-7.44-.49-10.12-.59-3.72-.14-12.14-.63-12.14.85s2.1,5.23,6,6.06A121.83,121.83,0,0,0,80,15.24V51.35h0a2.66,2.66,0,0,0,2.87,2.79l.35,0,.34,0a2.66,2.66,0,0,0,2.87-2.79h0V15.24a121.83,121.83,0,0,0,17.39-1.47c3.94-.83,6-4.52,6-6.06S101.47,6.72,97.75,6.86Z" fill="#ab8a56"/></svg>