<svg xmlns="http://www.w3.org/2000/svg" viewBox="0 0 31.99 26"><title>Asset 10</title><path d="M32,3.08a13.23,13.23,0,0,1-3.77,1A6.57,6.57,0,0,0,31.11.48a13.07,13.07,0,0,1-4.17,1.59A6.57,6.57,0,0,0,15.59,6.56a6.7,6.7,0,0,0,.16,1.5A18.64,18.64,0,0,1,2.23,1.2a6.49,6.49,0,0,0-.89,3.3A6.58,6.58,0,0,0,4.26,10a6.55,6.55,0,0,1-3-.83v.09a6.57,6.57,0,0,0,5.27,6.43,6.57,6.57,0,0,1-1.73.23,7.12,7.12,0,0,1-1.23-.11,6.55,6.55,0,0,0,6.13,4.55,13.19,13.19,0,0,1-8.15,2.82A13.5,13.5,0,0,1,0,23.05,18.57,18.57,0,0,0,10.06,26C22.13,26,28.74,16,28.74,7.33c0-.29,0-.57,0-.85A13.55,13.55,0,0,0,32,3.08Z" fill="#fff"/></svg>